<?xml version="1.0" encoding="UTF-8" standalone="no"?>
<!-- Created with Inkscape (http://www.inkscape.org/) -->

<svg
   xmlns:dc="http://purl.org/dc/elements/1.1/"
   xmlns:cc="http://creativecommons.org/ns#"
   xmlns:rdf="http://www.w3.org/1999/02/22-rdf-syntax-ns#"
   xmlns:svg="http://www.w3.org/2000/svg"
   xmlns="http://www.w3.org/2000/svg"
   xmlns:sodipodi="http://sodipodi.sourceforge.net/DTD/sodipodi-0.dtd"
   xmlns:inkscape="http://www.inkscape.org/namespaces/inkscape"
   sodipodi:docname="AMEncoder.svg"
   inkscape:version="0.92.4 (5da689c313, 2019-01-14)"
   id="svg8"
   version="1.1"
   viewBox="0 0 15.874799 100.5404"
   height="380"
   width="59.999996">
  <defs
     id="defs2" />
  <sodipodi:namedview
     inkscape:measure-end="0,0"
     inkscape:measure-start="39,346"
     inkscape:snap-global="false"
     fit-margin-bottom="0"
     fit-margin-right="0"
     fit-margin-left="0"
     fit-margin-top="0"
     inkscape:window-maximized="1"
     inkscape:window-y="-8"
     inkscape:window-x="-8"
     inkscape:window-height="1017"
     inkscape:window-width="1920"
     inkscape:snap-bbox-edge-midpoints="true"
     inkscape:bbox-nodes="true"
     inkscape:snap-page="true"
     inkscape:snap-bbox="true"
     units="px"
     showgrid="false"
     inkscape:current-layer="layer17"
     inkscape:document-units="px"
     inkscape:cy="183.53178"
     inkscape:cx="-206.75001"
     inkscape:zoom="2"
     inkscape:pageshadow="2"
     inkscape:pageopacity="0.0"
     borderopacity="1.0"
     bordercolor="#666666"
     pagecolor="#ffffff"
     id="base"
     scale-x="0.26458" />
  <metadata
     id="metadata5">
    <rdf:RDF>
      <cc:Work
         rdf:about="">
        <dc:format>image/svg+xml</dc:format>
        <dc:type
           rdf:resource="http://purl.org/dc/dcmitype/StillImage" />
        <dc:title />
      </cc:Work>
    </rdf:RDF>
  </metadata>
  <g
     inkscape:groupmode="layer"
     id="layer3"
     inkscape:label="Background Layer"
     transform="translate(-9.583231,93.673327)"
     style="display:inline"
     sodipodi:insensitive="true">
    <rect
       transform="translate(0,-196.45831)"
       y="102.78498"
       x="9.583231"
       height="100.5404"
       width="15.874799"
       id="rect858"
       style="display:inline;opacity:1;fill:#fe6902;fill-opacity:1;stroke:none;stroke-width:0.69544458;stroke-linecap:round;stroke-linejoin:miter;stroke-miterlimit:4;stroke-dasharray:none;stroke-opacity:1" />
  </g>
  <g
     inkscape:label="Labels Layer"
     inkscape:groupmode="layer"
     id="layer1"
     transform="translate(-9.583231,-102.78498)"
     style="display:inline"
     sodipodi:insensitive="true">
    <g
       id="g2536">
      <g
         transform="matrix(0.99998734,0,0,0.99998734,-53.055471,51.951745)"
         id="g4805">
        <path
           inkscape:connector-curvature="0"
           id="path4801"
           d="m 68.983457,70.370372 c -0.09943,0 -0.216308,-0.07472 -0.265151,-0.16836 l -1.595273,-3.061604 c -0.04885,-0.09363 -0.04885,-0.240231 0,-0.334812 l 1.595273,-3.061636 c 0.04885,-0.09363 0.16572,-0.167407 0.265151,-0.167407 h 3.187059 c 0.09943,0 0.216308,0.07378 0.265153,0.167407 l 1.595274,3.061636 c 0.04885,0.09458 0.04885,0.241185 0,0.334812 l -1.595274,3.061604 c -0.04885,0.09364 -0.165716,0.16836 -0.265153,0.16836 z m 0,0"
           style="display:inline;fill:#c95e15;fill-opacity:1;fill-rule:nonzero;stroke:none;stroke-width:0.16477577;stroke-miterlimit:4;stroke-dasharray:none;stroke-opacity:1" />
        <path
           style="display:inline;fill:#dccece;fill-opacity:1;fill-rule:nonzero;stroke:#7e7e7e;stroke-width:0.15838151;stroke-miterlimit:4;stroke-dasharray:none;stroke-opacity:1"
           d="m 68.981973,69.844344 c -0.09952,0 -0.21651,-0.06897 -0.265398,-0.155402 l -1.596759,-2.825966 c -0.04889,-0.08642 -0.04889,-0.221742 0,-0.309043 l 1.596759,-2.825996 c 0.04889,-0.08642 0.165874,-0.154522 0.265398,-0.154522 H 72.172 c 0.09952,0 0.21651,0.0681 0.2654,0.154522 l 1.59676,2.825996 c 0.04889,0.0873 0.04889,0.222622 0,0.309043 l -1.59676,2.825966 c -0.04889,0.08643 -0.16587,0.155402 -0.2654,0.155402 z m 0,0"
           id="path2718-2"
           inkscape:connector-curvature="0" />
      </g>
      <g
         id="text4919"
         style="font-style:normal;font-variant:normal;font-weight:normal;font-stretch:normal;font-size:10.58320045px;line-height:1.25;font-family:'DejaVu Sans';-inkscape-font-specification:'DejaVu Sans';letter-spacing:0px;word-spacing:0px;fill:#000000;fill-opacity:1;stroke:none;stroke-width:0.26458001"
         aria-label="IN 1">
        <path
           id="path2472"
           style="font-style:normal;font-variant:normal;font-weight:normal;font-stretch:normal;font-size:2.11664009px;font-family:'Arial Rounded MT Bold';-inkscape-font-specification:'Arial Rounded MT Bold, ';stroke-width:0.26458001"
           d="m 15.770879,124.18702 v -1.19371 q 0,-0.093 0.04237,-0.13952 0.04237,-0.0465 0.109552,-0.0465 0.06925,0 0.11162,0.0465 0.04341,0.0455 0.04341,0.13952 v 1.19371 q 0,0.094 -0.04341,0.14056 -0.04237,0.0465 -0.11162,0.0465 -0.06615,0 -0.109552,-0.0465 -0.04237,-0.0475 -0.04237,-0.14056 z"
           inkscape:connector-curvature="0" />
        <path
           id="path2474"
           style="font-style:normal;font-variant:normal;font-weight:normal;font-stretch:normal;font-size:2.11664009px;font-family:'Arial Rounded MT Bold';-inkscape-font-specification:'Arial Rounded MT Bold, ';stroke-width:0.26458001"
           d="m 16.819897,122.99125 0.590137,0.89295 v -0.90122 q 0,-0.0879 0.03721,-0.13126 0.03824,-0.0444 0.102318,-0.0444 0.06615,0 0.104385,0.0444 0.03824,0.0434 0.03824,0.13126 v 1.19164 q 0,0.19947 -0.165362,0.19947 -0.04134,0 -0.07441,-0.0124 -0.03307,-0.0114 -0.06201,-0.0372 -0.02894,-0.0258 -0.05374,-0.0599 -0.02481,-0.0351 -0.04961,-0.0713 l -0.575668,-0.88262 v 0.88779 q 0,0.0868 -0.04031,0.13126 -0.04031,0.0444 -0.103352,0.0444 -0.06511,0 -0.104385,-0.0444 -0.03927,-0.0455 -0.03927,-0.13126 v -1.1689 q 0,-0.0744 0.01654,-0.11679 0.01964,-0.0465 0.06511,-0.0755 0.04548,-0.03 0.09818,-0.03 0.04134,0 0.07028,0.0134 0.02997,0.0134 0.05168,0.0362 0.02274,0.0227 0.04547,0.0589 0.02377,0.0362 0.04857,0.0754 z"
           inkscape:connector-curvature="0" />
        <path
           id="path2476"
           style="font-style:normal;font-variant:normal;font-weight:normal;font-stretch:normal;font-size:2.11664009px;font-family:'Arial Rounded MT Bold';-inkscape-font-specification:'Arial Rounded MT Bold, ';stroke-width:0.26458001"
           d="m 18.989246,124.20666 v -0.9405 q -0.262513,0.20154 -0.353462,0.20154 -0.04341,0 -0.07751,-0.0341 -0.03307,-0.0351 -0.03307,-0.0806 0,-0.0527 0.03307,-0.0775 0.03307,-0.0248 0.116788,-0.0641 0.125055,-0.0589 0.199468,-0.12402 0.07545,-0.0651 0.133324,-0.14572 0.05788,-0.0806 0.07545,-0.0992 0.01757,-0.0186 0.06614,-0.0186 0.05478,0 0.08785,0.0424 0.03307,0.0424 0.03307,0.11679 v 1.18337 q 0,0.20774 -0.141592,0.20774 -0.06304,0 -0.101285,-0.0424 -0.03824,-0.0424 -0.03824,-0.12506 z"
           inkscape:connector-curvature="0" />
      </g>
    </g>
    <g
       id="g2527">
      <g
         transform="matrix(0.99998734,0,0,0.99998734,-53.055471,64.18857)"
         id="g4811">
        <path
           style="display:inline;fill:#c95e15;fill-opacity:1;fill-rule:nonzero;stroke:none;stroke-width:0.16477577;stroke-miterlimit:4;stroke-dasharray:none;stroke-opacity:1"
           d="m 68.983457,70.370372 c -0.09943,0 -0.216308,-0.07472 -0.265151,-0.16836 l -1.595273,-3.061604 c -0.04885,-0.09363 -0.04885,-0.240231 0,-0.334812 l 1.595273,-3.061636 c 0.04885,-0.09363 0.16572,-0.167407 0.265151,-0.167407 h 3.187059 c 0.09943,0 0.216308,0.07378 0.265153,0.167407 l 1.595274,3.061636 c 0.04885,0.09458 0.04885,0.241185 0,0.334812 l -1.595274,3.061604 c -0.04885,0.09364 -0.165716,0.16836 -0.265153,0.16836 z m 0,0"
           id="path4807"
           inkscape:connector-curvature="0" />
        <path
           inkscape:connector-curvature="0"
           id="path4809"
           d="m 68.981973,69.844344 c -0.09952,0 -0.21651,-0.06897 -0.265398,-0.155402 l -1.596759,-2.825966 c -0.04889,-0.08642 -0.04889,-0.221742 0,-0.309043 l 1.596759,-2.825996 c 0.04889,-0.08642 0.165874,-0.154522 0.265398,-0.154522 H 72.172 c 0.09952,0 0.21651,0.0681 0.2654,0.154522 l 1.59676,2.825996 c 0.04889,0.0873 0.04889,0.222622 0,0.309043 l -1.59676,2.825966 c -0.04889,0.08643 -0.16587,0.155402 -0.2654,0.155402 z m 0,0"
           style="display:inline;fill:#dccece;fill-opacity:1;fill-rule:nonzero;stroke:#7e7e7e;stroke-width:0.15838151;stroke-miterlimit:4;stroke-dasharray:none;stroke-opacity:1" />
      </g>
      <g
         id="text4923"
         style="font-style:normal;font-variant:normal;font-weight:normal;font-stretch:normal;font-size:10.58320045px;line-height:1.25;font-family:'DejaVu Sans';-inkscape-font-specification:'DejaVu Sans';letter-spacing:0px;word-spacing:0px;fill:#000000;fill-opacity:1;stroke:none;stroke-width:0.26458001"
         aria-label="IN 2">
        <path
           id="path2479"
           style="font-style:normal;font-variant:normal;font-weight:normal;font-stretch:normal;font-size:2.11664009px;font-family:'Arial Rounded MT Bold';-inkscape-font-specification:'Arial Rounded MT Bold, ';stroke-width:0.26458001"
           d="m 15.621535,136.55615 v -1.19371 q 0,-0.093 0.04237,-0.13953 0.04237,-0.0465 0.109553,-0.0465 0.06925,0 0.11162,0.0465 0.04341,0.0455 0.04341,0.13953 v 1.19371 q 0,0.0941 -0.04341,0.14056 -0.04237,0.0465 -0.11162,0.0465 -0.06615,0 -0.109553,-0.0465 -0.04237,-0.0476 -0.04237,-0.14056 z"
           inkscape:connector-curvature="0" />
        <path
           id="path2481"
           style="font-style:normal;font-variant:normal;font-weight:normal;font-stretch:normal;font-size:2.11664009px;font-family:'Arial Rounded MT Bold';-inkscape-font-specification:'Arial Rounded MT Bold, ';stroke-width:0.26458001"
           d="m 16.670554,135.36037 0.590137,0.89296 v -0.90123 q 0,-0.0879 0.03721,-0.13125 0.03824,-0.0445 0.102318,-0.0445 0.06614,0 0.104385,0.0445 0.03824,0.0434 0.03824,0.13125 v 1.19165 q 0,0.19946 -0.165363,0.19946 -0.04134,0 -0.07441,-0.0124 -0.03307,-0.0114 -0.06201,-0.0372 -0.02894,-0.0258 -0.05374,-0.06 -0.0248,-0.0351 -0.04961,-0.0713 l -0.575669,-0.88262 v 0.88779 q 0,0.0868 -0.04031,0.13125 -0.04031,0.0444 -0.103351,0.0444 -0.06511,0 -0.104385,-0.0444 -0.03927,-0.0455 -0.03927,-0.13125 v -1.16891 q 0,-0.0744 0.01654,-0.11679 0.01964,-0.0465 0.06511,-0.0754 0.04547,-0.03 0.09818,-0.03 0.04134,0 0.07028,0.0134 0.02997,0.0134 0.05168,0.0362 0.02274,0.0227 0.04547,0.0589 0.02377,0.0362 0.04858,0.0754 z"
           inkscape:connector-curvature="0" />
        <path
           id="path2483"
           style="font-style:normal;font-variant:normal;font-weight:normal;font-stretch:normal;font-size:2.11664009px;font-family:'Arial Rounded MT Bold';-inkscape-font-specification:'Arial Rounded MT Bold, ';stroke-width:0.26458001"
           d="m 18.714847,136.47347 h 0.539496 q 0.08061,0 0.122988,0.0331 0.04237,0.0331 0.04237,0.0899 0,0.0506 -0.03411,0.0858 -0.03307,0.0351 -0.101284,0.0351 h -0.760668 q -0.07751,0 -0.120921,-0.0424 -0.04341,-0.0434 -0.04341,-0.10128 0,-0.0372 0.02791,-0.0982 0.02791,-0.062 0.06098,-0.0971 0.137458,-0.14262 0.248044,-0.24391 0.110586,-0.10231 0.158128,-0.13435 0.08475,-0.06 0.140558,-0.11989 0.05684,-0.061 0.08578,-0.12402 0.02997,-0.0641 0.02997,-0.12506 0,-0.0661 -0.03204,-0.11782 -0.03101,-0.0527 -0.08578,-0.0816 -0.05374,-0.0289 -0.117821,-0.0289 -0.13539,0 -0.212904,0.11886 -0.01033,0.0155 -0.03514,0.0847 -0.02377,0.0692 -0.05478,0.10645 -0.02997,0.0372 -0.08888,0.0372 -0.05168,0 -0.08578,-0.0341 -0.03411,-0.0341 -0.03411,-0.093 0,-0.0713 0.03204,-0.14882 0.03204,-0.0775 0.09508,-0.14056 0.06408,-0.063 0.161228,-0.10129 0.09818,-0.0393 0.229441,-0.0393 0.158127,0 0.269747,0.0496 0.07235,0.0331 0.127123,0.0909 0.05478,0.0579 0.08475,0.13436 0.03101,0.0754 0.03101,0.15709 0,0.12816 -0.06408,0.23358 -0.06304,0.10438 -0.129189,0.16432 -0.06615,0.0589 -0.222206,0.18604 -0.155027,0.12712 -0.212904,0.1974 -0.02481,0.0279 -0.05064,0.0672 z"
           inkscape:connector-curvature="0" />
      </g>
    </g>
    <g
       id="g2545">
      <path
         inkscape:connector-curvature="0"
         id="path4744"
         d="m 21.308354,160.7576 c 0,-0.4302 -0.352574,-0.7817 -0.782776,-0.7817 h -6.009912 c -0.430203,0 -0.782774,0.3515 -0.782774,0.7817 v 9.13347 c 0,0.4302 0.352571,0.78278 0.782774,0.78278 h 6.009912 c 0.430202,0 0.782776,-0.35258 0.782776,-0.78278 z m 0,0"
         style="fill:#212121;fill-opacity:1;fill-rule:nonzero;stroke:none;stroke-width:0.24310221" />
      <path
         inkscape:connector-curvature="0"
         id="path4799"
         d="m 15.925628,167.03839 c -0.09952,0 -0.216507,-0.069 -0.265395,-0.15539 l -1.596739,-2.82594 c -0.04889,-0.0864 -0.04889,-0.22174 0,-0.30903 l 1.596739,-2.82597 c 0.04889,-0.0864 0.165872,-0.15452 0.265395,-0.15452 h 3.189986 c 0.09952,0 0.216508,0.0681 0.265397,0.15452 l 1.59674,2.82597 c 0.04889,0.0873 0.04889,0.22261 0,0.30903 l -1.59674,2.82594 c -0.04889,0.0864 -0.165868,0.15539 -0.265397,0.15539 z m 0,0"
         style="display:inline;fill:#dccece;fill-opacity:1;fill-rule:nonzero;stroke:#7e7e7e;stroke-width:0.1583795;stroke-miterlimit:4;stroke-dasharray:none;stroke-opacity:1" />
      <g
         id="text4931"
         style="font-style:normal;font-variant:normal;font-weight:normal;font-stretch:normal;font-size:10.58320045px;line-height:1.25;font-family:'DejaVu Sans';-inkscape-font-specification:'DejaVu Sans';letter-spacing:0px;word-spacing:0px;fill:#000000;fill-opacity:1;stroke:none;stroke-width:0.26458001"
         aria-label="OUT 1">
        <path
           id="path2486"
           style="font-style:normal;font-variant:normal;font-weight:normal;font-stretch:normal;font-size:2.11664009px;font-family:'Arial Rounded MT Bold';-inkscape-font-specification:'Arial Rounded MT Bold, ';fill:#ffffff;stroke-width:0.26458001"
           d="m 15.296495,168.11661 q 0.235641,0 0.404104,0.0961 0.169497,0.0951 0.256312,0.27182 0.08682,0.17569 0.08682,0.4134 0,0.1757 -0.04754,0.31936 -0.04754,0.14366 -0.142625,0.24908 -0.09508,0.10542 -0.233575,0.16123 -0.138491,0.0558 -0.317289,0.0558 -0.177765,0 -0.318323,-0.0569 -0.140558,-0.0579 -0.234608,-0.16226 -0.09405,-0.10438 -0.142625,-0.25114 -0.04754,-0.14676 -0.04754,-0.31729 0,-0.17467 0.04961,-0.32039 0.05064,-0.14573 0.145726,-0.24805 0.09508,-0.10232 0.231507,-0.15606 0.136424,-0.0548 0.310055,-0.0548 z m 0.436143,0.77927 q 0,-0.1664 -0.05374,-0.28835 -0.05374,-0.12196 -0.153994,-0.18397 -0.09922,-0.063 -0.228407,-0.063 -0.09198,0 -0.17053,0.0351 -0.07751,0.0341 -0.134357,0.10026 -0.05581,0.0661 -0.08888,0.16949 -0.03204,0.10232 -0.03204,0.23048 0,0.12919 0.03204,0.23357 0.03307,0.10439 0.09198,0.17363 0.05994,0.0682 0.136424,0.10232 0.07751,0.0341 0.169497,0.0341 0.117821,0 0.216005,-0.0589 0.09922,-0.0589 0.157094,-0.1819 0.05891,-0.12299 0.05891,-0.30282 z"
           inkscape:connector-curvature="0" />
        <path
           id="path2488"
           style="font-style:normal;font-variant:normal;font-weight:normal;font-stretch:normal;font-size:2.11664009px;font-family:'Arial Rounded MT Bold';-inkscape-font-specification:'Arial Rounded MT Bold, ';fill:#ffffff;stroke-width:0.26458001"
           d="m 16.310374,169.03127 v -0.72863 q 0,-0.093 0.04134,-0.13953 0.04237,-0.0465 0.110587,-0.0465 0.07131,0 0.112653,0.0465 0.04237,0.0465 0.04237,0.13953 v 0.74516 q 0,0.12713 0.02791,0.21291 0.02894,0.0848 0.101284,0.13229 0.07235,0.0465 0.202569,0.0465 0.179832,0 0.254245,-0.0951 0.07441,-0.0961 0.07441,-0.29042 v -0.75136 q 0,-0.0941 0.04134,-0.13953 0.04134,-0.0465 0.110586,-0.0465 0.06925,0 0.11162,0.0465 0.04341,0.0455 0.04341,0.13953 v 0.72863 q 0,0.17776 -0.03514,0.29662 -0.03411,0.11885 -0.130223,0.20877 -0.08268,0.0765 -0.192234,0.11162 -0.109553,0.0351 -0.256312,0.0351 -0.174664,0 -0.300753,-0.0372 -0.126089,-0.0382 -0.205669,-0.11679 -0.07958,-0.0796 -0.116788,-0.20257 -0.03721,-0.12402 -0.03721,-0.29558 z"
           inkscape:connector-curvature="0" />
        <path
           id="path2490"
           style="font-style:normal;font-variant:normal;font-weight:normal;font-stretch:normal;font-size:2.11664009px;font-family:'Arial Rounded MT Bold';-inkscape-font-specification:'Arial Rounded MT Bold, ';fill:#ffffff;stroke-width:0.26458001"
           d="m 18.900364,168.39565 h -0.334859 v 1.1007 q 0,0.0951 -0.04237,0.14159 -0.04237,0.0455 -0.109553,0.0455 -0.06821,0 -0.11162,-0.0465 -0.04237,-0.0465 -0.04237,-0.14056 v -1.1007 h -0.334859 q -0.07855,0 -0.116787,-0.0341 -0.03824,-0.0351 -0.03824,-0.092 0,-0.0589 0.03927,-0.093 0.04031,-0.0341 0.115754,-0.0341 h 0.975639 q 0.07958,0 0.117821,0.0351 0.03927,0.0351 0.03927,0.092 0,0.0568 -0.03927,0.092 -0.03927,0.0341 -0.117821,0.0341 z"
           inkscape:connector-curvature="0" />
        <path
           id="path2492"
           style="font-style:normal;font-variant:normal;font-weight:normal;font-stretch:normal;font-size:2.11664009px;font-family:'Arial Rounded MT Bold';-inkscape-font-specification:'Arial Rounded MT Bold, ';fill:#ffffff;stroke-width:0.26458001"
           d="m 20.200527,169.51599 v -0.9405 q -0.262513,0.20153 -0.353463,0.20153 -0.04341,0 -0.07751,-0.0341 -0.03307,-0.0351 -0.03307,-0.0806 0,-0.0527 0.03307,-0.0775 0.03307,-0.0248 0.116787,-0.0641 0.125055,-0.0589 0.199468,-0.12402 0.07545,-0.0651 0.133324,-0.14573 0.05788,-0.0806 0.07545,-0.0992 0.01757,-0.0186 0.06614,-0.0186 0.05478,0 0.08785,0.0424 0.03307,0.0424 0.03307,0.11678 v 1.18338 q 0,0.20774 -0.141592,0.20774 -0.06304,0 -0.101284,-0.0424 -0.03824,-0.0424 -0.03824,-0.12505 z"
           inkscape:connector-curvature="0" />
      </g>
    </g>
    <g
       id="g2554">
      <path
         style="fill:#212121;fill-opacity:1;fill-rule:nonzero;stroke:none;stroke-width:0.24310221"
         d="m 21.308354,173.12672 c 0,-0.43021 -0.352574,-0.7817 -0.782776,-0.7817 h -6.009912 c -0.430203,0 -0.782774,0.35149 -0.782774,0.7817 v 9.13346 c 0,0.43021 0.352571,0.78278 0.782774,0.78278 h 6.009912 c 0.430202,0 0.782776,-0.35257 0.782776,-0.78278 z m 0,0"
         id="path4983"
         inkscape:connector-curvature="0" />
      <path
         style="display:inline;fill:#dccece;fill-opacity:1;fill-rule:nonzero;stroke:#7e7e7e;stroke-width:0.1583795;stroke-miterlimit:4;stroke-dasharray:none;stroke-opacity:1"
         d="m 15.925628,179.40751 c -0.09952,0 -0.216507,-0.069 -0.265395,-0.1554 l -1.596739,-2.82593 c -0.04889,-0.0864 -0.04889,-0.22174 0,-0.30904 l 1.596739,-2.82596 c 0.04889,-0.0864 0.165872,-0.15452 0.265395,-0.15452 h 3.189986 c 0.09952,0 0.216508,0.0681 0.265397,0.15452 l 1.59674,2.82596 c 0.04889,0.0873 0.04889,0.22262 0,0.30904 l -1.59674,2.82593 c -0.04889,0.0864 -0.165868,0.1554 -0.265397,0.1554 z m 0,0"
         id="path4985"
         inkscape:connector-curvature="0" />
      <g
         id="text4989"
         style="font-style:normal;font-variant:normal;font-weight:normal;font-stretch:normal;font-size:10.58320045px;line-height:1.25;font-family:'DejaVu Sans';-inkscape-font-specification:'DejaVu Sans';letter-spacing:0px;word-spacing:0px;fill:#000000;fill-opacity:1;stroke:none;stroke-width:0.26458001"
         aria-label="OUT 2">
        <path
           id="path2495"
           style="font-style:normal;font-variant:normal;font-weight:normal;font-stretch:normal;font-size:2.11664009px;font-family:'Arial Rounded MT Bold';-inkscape-font-specification:'Arial Rounded MT Bold, ';fill:#ffffff;stroke-width:0.26458001"
           d="m 15.147151,180.48572 q 0.235642,0 0.404105,0.0961 0.169497,0.0951 0.256312,0.27182 0.08681,0.1757 0.08681,0.4134 0,0.1757 -0.04754,0.31936 -0.04754,0.14366 -0.142625,0.24908 -0.09508,0.10542 -0.233574,0.16123 -0.138491,0.0558 -0.31729,0.0558 -0.177764,0 -0.318322,-0.0568 -0.140559,-0.0579 -0.234608,-0.16226 -0.09405,-0.10438 -0.142626,-0.25114 -0.04754,-0.14676 -0.04754,-0.31729 0,-0.17467 0.04961,-0.32039 0.05064,-0.14573 0.145726,-0.24805 0.09508,-0.10232 0.231508,-0.15606 0.136424,-0.0548 0.310054,-0.0548 z m 0.436144,0.77927 q 0,-0.1664 -0.05374,-0.28835 -0.05374,-0.12196 -0.153994,-0.18397 -0.09922,-0.063 -0.228407,-0.063 -0.09198,0 -0.17053,0.0351 -0.07751,0.0341 -0.134357,0.10026 -0.05581,0.0661 -0.08888,0.16949 -0.03204,0.10232 -0.03204,0.23048 0,0.12919 0.03204,0.23357 0.03307,0.10439 0.09198,0.17363 0.05994,0.0682 0.136424,0.10232 0.07751,0.0341 0.169496,0.0341 0.117821,0 0.216005,-0.0589 0.09922,-0.0589 0.157095,-0.1819 0.05891,-0.12299 0.05891,-0.30282 z"
           inkscape:connector-curvature="0" />
        <path
           id="path2497"
           style="font-style:normal;font-variant:normal;font-weight:normal;font-stretch:normal;font-size:2.11664009px;font-family:'Arial Rounded MT Bold';-inkscape-font-specification:'Arial Rounded MT Bold, ';fill:#ffffff;stroke-width:0.26458001"
           d="m 16.16103,181.40038 v -0.72863 q 0,-0.093 0.04134,-0.13953 0.04237,-0.0465 0.110586,-0.0465 0.07131,0 0.112653,0.0465 0.04237,0.0465 0.04237,0.13953 v 0.74516 q 0,0.12713 0.0279,0.21291 0.02894,0.0848 0.101285,0.13229 0.07235,0.0465 0.202569,0.0465 0.179832,0 0.254245,-0.0951 0.07441,-0.0961 0.07441,-0.29042 v -0.75136 q 0,-0.0941 0.04134,-0.13953 0.04134,-0.0465 0.110586,-0.0465 0.06924,0 0.111619,0.0465 0.04341,0.0455 0.04341,0.13953 v 0.72863 q 0,0.17776 -0.03514,0.29662 -0.03411,0.11885 -0.130223,0.20877 -0.08268,0.0765 -0.192234,0.11162 -0.109553,0.0351 -0.256312,0.0351 -0.174664,0 -0.300753,-0.0372 -0.126089,-0.0382 -0.20567,-0.11679 -0.07958,-0.0796 -0.116787,-0.20257 -0.03721,-0.12402 -0.03721,-0.29558 z"
           inkscape:connector-curvature="0" />
        <path
           id="path2499"
           style="font-style:normal;font-variant:normal;font-weight:normal;font-stretch:normal;font-size:2.11664009px;font-family:'Arial Rounded MT Bold';-inkscape-font-specification:'Arial Rounded MT Bold, ';fill:#ffffff;stroke-width:0.26458001"
           d="m 18.751021,180.76476 h -0.33486 v 1.1007 q 0,0.0951 -0.04237,0.14159 -0.04237,0.0455 -0.109552,0.0455 -0.06821,0 -0.11162,-0.0465 -0.04237,-0.0465 -0.04237,-0.14056 v -1.1007 H 17.77539 q -0.07855,0 -0.116788,-0.0341 -0.03824,-0.0351 -0.03824,-0.092 0,-0.0589 0.03927,-0.093 0.04031,-0.0341 0.115754,-0.0341 h 0.975639 q 0.07958,0 0.11782,0.0351 0.03927,0.0351 0.03927,0.092 0,0.0568 -0.03927,0.092 -0.03927,0.0341 -0.11782,0.0341 z"
           inkscape:connector-curvature="0" />
        <path
           id="path2501"
           style="font-style:normal;font-variant:normal;font-weight:normal;font-stretch:normal;font-size:2.11664009px;font-family:'Arial Rounded MT Bold';-inkscape-font-specification:'Arial Rounded MT Bold, ';fill:#ffffff;stroke-width:0.26458001"
           d="m 19.926128,181.78278 h 0.539495 q 0.08061,0 0.122988,0.0331 0.04237,0.0331 0.04237,0.0899 0,0.0506 -0.03411,0.0858 -0.03307,0.0351 -0.101284,0.0351 h -0.760668 q -0.07751,0 -0.120921,-0.0424 -0.04341,-0.0434 -0.04341,-0.10128 0,-0.0372 0.02791,-0.0982 0.02791,-0.062 0.06098,-0.0971 0.137457,-0.14262 0.248044,-0.24391 0.110586,-0.10231 0.158127,-0.13435 0.08475,-0.0599 0.140559,-0.11989 0.05684,-0.061 0.08578,-0.12402 0.02997,-0.0641 0.02997,-0.12506 0,-0.0661 -0.03204,-0.11782 -0.03101,-0.0527 -0.08578,-0.0816 -0.05374,-0.0289 -0.117821,-0.0289 -0.135391,0 -0.212904,0.11885 -0.01034,0.0155 -0.03514,0.0848 -0.02377,0.0692 -0.05478,0.10645 -0.02997,0.0372 -0.08888,0.0372 -0.05167,0 -0.08578,-0.0341 -0.03411,-0.0341 -0.03411,-0.093 0,-0.0713 0.03204,-0.14882 0.03204,-0.0775 0.09508,-0.14056 0.06408,-0.063 0.161228,-0.10128 0.09818,-0.0393 0.229441,-0.0393 0.158128,0 0.269747,0.0496 0.07235,0.0331 0.127123,0.0909 0.05478,0.0579 0.08475,0.13436 0.03101,0.0754 0.03101,0.15709 0,0.12816 -0.06408,0.23358 -0.06305,0.10438 -0.12919,0.16433 -0.06614,0.0589 -0.222206,0.18603 -0.155027,0.12712 -0.212904,0.1974 -0.0248,0.0279 -0.05064,0.0672 z"
           inkscape:connector-curvature="0" />
      </g>
    </g>
    <g
       aria-label="NE-2"
       style="font-style:normal;font-weight:normal;font-size:10.58320045px;line-height:1.25;font-family:sans-serif;letter-spacing:0px;word-spacing:0px;fill:#000000;fill-opacity:1;stroke:none;stroke-width:0.26458001"
       id="text5039">
      <path
         d="m 13.5757,108.53752 1.180275,1.78592 v -1.80245 q 0,-0.1757 0.07441,-0.26252 0.07648,-0.0889 0.204636,-0.0889 0.13229,0 0.20877,0.0889 0.07648,0.0868 0.07648,0.26252 v 2.38328 q 0,0.39894 -0.330725,0.39894 -0.08268,0 -0.148827,-0.0248 -0.06615,-0.0227 -0.124022,-0.0744 -0.05788,-0.0517 -0.107485,-0.11989 -0.04961,-0.0703 -0.09922,-0.14262 l -1.151336,-1.76525 v 1.77558 q 0,0.17363 -0.08061,0.26252 -0.08061,0.0889 -0.206703,0.0889 -0.130223,0 -0.208771,-0.0889 -0.07855,-0.091 -0.07855,-0.26252 V 108.614 q 0,-0.14882 0.03307,-0.23357 0.03927,-0.093 0.130223,-0.1509 0.09095,-0.0599 0.196368,-0.0599 0.08268,0 0.140558,0.0269 0.05994,0.0269 0.103351,0.0724 0.04547,0.0455 0.09095,0.11782 0.04754,0.0723 0.09715,0.15089 z"
         style="font-style:normal;font-variant:normal;font-weight:normal;font-stretch:normal;font-size:4.23328018px;font-family:'Arial Rounded MT Bold';-inkscape-font-specification:'Arial Rounded MT Bold, ';stroke-width:0.26458001"
         id="path2463"
         inkscape:connector-curvature="0" />
      <path
         d="m 17.988812,108.69462 h -1.382844 v 0.74413 h 1.273291 q 0.140559,0 0.208771,0.0641 0.07028,0.062 0.07028,0.16537 0,0.10335 -0.06821,0.16949 -0.06821,0.0641 -0.210838,0.0641 h -1.273291 v 0.86195 h 1.430386 q 0.144692,0 0.217038,0.0682 0.07441,0.0661 0.07441,0.17776 0,0.10749 -0.07441,0.1757 -0.07235,0.0661 -0.217038,0.0661 h -1.668095 q -0.200502,0 -0.289384,-0.0889 -0.08681,-0.0889 -0.08681,-0.28732 v -2.27786 q 0,-0.13229 0.03927,-0.21498 0.03927,-0.0847 0.121955,-0.12195 0.08475,-0.0393 0.214971,-0.0393 h 1.620553 q 0.146759,0 0.217038,0.0661 0.07235,0.0641 0.07235,0.1695 0,0.10748 -0.07235,0.17363 -0.07028,0.0641 -0.217038,0.0641 z"
         style="font-style:normal;font-variant:normal;font-weight:normal;font-stretch:normal;font-size:4.23328018px;font-family:'Arial Rounded MT Bold';-inkscape-font-specification:'Arial Rounded MT Bold, ';stroke-width:0.26458001"
         id="path2465"
         inkscape:connector-curvature="0" />
      <path
         d="m 19.522549,110.39992 h -0.653182 q -0.148826,0 -0.227373,-0.0682 -0.07648,-0.0703 -0.07648,-0.17983 0,-0.11162 0.07441,-0.17983 0.07648,-0.0703 0.22944,-0.0703 h 0.653182 q 0.152961,0 0.227374,0.0703 0.07648,0.0682 0.07648,0.17983 0,0.10956 -0.07441,0.17983 -0.07441,0.0682 -0.229441,0.0682 z"
         style="font-style:normal;font-variant:normal;font-weight:normal;font-stretch:normal;font-size:4.23328018px;font-family:'Arial Rounded MT Bold';-inkscape-font-specification:'Arial Rounded MT Bold, ';stroke-width:0.26458001"
         id="path2467"
         inkscape:connector-curvature="0" />
      <path
         d="m 20.847516,110.76371 h 1.078991 q 0.161228,0 0.245976,0.0661 0.08475,0.0661 0.08475,0.17983 0,0.10129 -0.06821,0.17156 -0.06614,0.0703 -0.202569,0.0703 h -1.521335 q -0.155028,0 -0.241843,-0.0847 -0.08681,-0.0868 -0.08681,-0.20257 0,-0.0744 0.05581,-0.19637 0.05581,-0.12402 0.121955,-0.1943 0.274915,-0.28525 0.496088,-0.48782 0.221172,-0.20464 0.316256,-0.26872 0.169496,-0.11988 0.281116,-0.23977 0.113687,-0.12196 0.171563,-0.24805 0.05994,-0.12815 0.05994,-0.25011 0,-0.13229 -0.06408,-0.23564 -0.06201,-0.10542 -0.171563,-0.16329 -0.107486,-0.0579 -0.235642,-0.0579 -0.270781,0 -0.425808,0.23771 -0.02067,0.031 -0.07028,0.16949 -0.04754,0.1385 -0.109553,0.21291 -0.05994,0.0744 -0.177765,0.0744 -0.103351,0 -0.171563,-0.0682 -0.06821,-0.0682 -0.06821,-0.18603 0,-0.14263 0.06408,-0.29766 0.06408,-0.15502 0.190167,-0.28111 0.128156,-0.12609 0.322456,-0.20257 0.196368,-0.0786 0.458881,-0.0786 0.316256,0 0.539496,0.0992 0.144692,0.0661 0.254244,0.1819 0.109553,0.11575 0.169497,0.26871 0.06201,0.1509 0.06201,0.31419 0,0.25631 -0.128156,0.46715 -0.126089,0.20877 -0.258379,0.32866 -0.13229,0.11782 -0.444412,0.37206 -0.310054,0.25425 -0.425808,0.39481 -0.04961,0.0558 -0.101285,0.13435 z"
         style="font-style:normal;font-variant:normal;font-weight:normal;font-stretch:normal;font-size:4.23328018px;font-family:'Arial Rounded MT Bold';-inkscape-font-specification:'Arial Rounded MT Bold, ';stroke-width:0.26458001"
         id="path2469"
         inkscape:connector-curvature="0" />
    </g>
    <g
       id="g2565">
      <g
         id="text5053"
         style="font-style:normal;font-weight:normal;font-size:10.58320045px;line-height:1.25;font-family:sans-serif;letter-spacing:0px;word-spacing:0px;fill:#000000;fill-opacity:1;stroke:none;stroke-width:0.26458001"
         aria-label="CARRIER">
        <path
           id="path2504"
           style="font-style:normal;font-variant:normal;font-weight:normal;font-stretch:normal;font-size:2.11664009px;font-family:'Arial Rounded MT Bold';-inkscape-font-specification:'Arial Rounded MT Bold, ';stroke-width:0.26458001"
           d="m 14.108989,198.48131 q 0,0.0723 -0.03617,0.15709 -0.03514,0.0837 -0.11162,0.16536 -0.07648,0.0806 -0.195334,0.13126 -0.118855,0.0506 -0.276983,0.0506 -0.119887,0 -0.218071,-0.0227 -0.09818,-0.0227 -0.178799,-0.0703 -0.07958,-0.0486 -0.146759,-0.12713 -0.05994,-0.0713 -0.102318,-0.15916 -0.04237,-0.0889 -0.06408,-0.18913 -0.02067,-0.10025 -0.02067,-0.21291 0,-0.18293 0.05271,-0.32762 0.05374,-0.14469 0.15296,-0.24701 0.09922,-0.10335 0.232542,-0.1571 0.133323,-0.0537 0.284216,-0.0537 0.183966,0 0.327625,0.0734 0.143658,0.0734 0.220139,0.1819 0.07648,0.10749 0.07648,0.2036 0,0.0527 -0.03721,0.093 -0.03721,0.0403 -0.08992,0.0403 -0.05891,0 -0.08888,-0.0279 -0.02894,-0.0279 -0.06511,-0.0961 -0.05994,-0.11265 -0.141592,-0.16846 -0.08061,-0.0558 -0.199469,-0.0558 -0.189133,0 -0.301786,0.14366 -0.11162,0.14366 -0.11162,0.40824 0,0.17673 0.04961,0.29455 0.04961,0.11679 0.140558,0.17466 0.09095,0.0579 0.212904,0.0579 0.13229,0 0.22324,-0.0651 0.09198,-0.0661 0.138491,-0.19327 0.01964,-0.0599 0.04858,-0.0971 0.02894,-0.0382 0.09302,-0.0382 0.05478,0 0.09405,0.0382 0.03927,0.0382 0.03927,0.0951 z"
           inkscape:connector-curvature="0" />
        <path
           id="path2507"
           style="font-style:normal;font-variant:normal;font-weight:normal;font-stretch:normal;font-size:2.11664009px;font-family:'Arial Rounded MT Bold';-inkscape-font-specification:'Arial Rounded MT Bold, ';stroke-width:0.26458001"
           d="m 15.354375,198.78826 -0.07235,-0.19017 H 14.66605 l -0.07235,0.1943 q -0.04237,0.11369 -0.07235,0.154 -0.02997,0.0393 -0.09818,0.0393 -0.05788,0 -0.102318,-0.0424 -0.04444,-0.0424 -0.04444,-0.0961 0,-0.031 0.01034,-0.0641 0.01033,-0.0331 0.03411,-0.092 l 0.387568,-0.98391 q 0.01654,-0.0424 0.03927,-0.10128 0.02377,-0.0599 0.04961,-0.0992 0.02687,-0.0393 0.06925,-0.063 0.04341,-0.0248 0.106452,-0.0248 0.06408,0 0.106452,0.0248 0.04341,0.0238 0.06925,0.062 0.02687,0.0382 0.04444,0.0827 0.0186,0.0434 0.04651,0.11679 l 0.395837,0.9777 q 0.04651,0.11162 0.04651,0.16226 0,0.0527 -0.04444,0.0971 -0.04341,0.0434 -0.105419,0.0434 -0.03617,0 -0.06201,-0.0134 -0.02584,-0.0124 -0.04341,-0.0341 -0.01757,-0.0227 -0.03824,-0.0682 -0.01964,-0.0465 -0.03411,-0.0816 z m -0.607707,-0.42064 h 0.45268 l -0.228407,-0.62528 z"
           inkscape:connector-curvature="0" />
        <path
           id="path2509"
           style="font-style:normal;font-variant:normal;font-weight:normal;font-stretch:normal;font-size:2.11664009px;font-family:'Arial Rounded MT Bold';-inkscape-font-specification:'Arial Rounded MT Bold, ';stroke-width:0.26458001"
           d="M 16.318645,198.31181 H 16.21116 v 0.48679 q 0,0.0961 -0.04237,0.14159 -0.04237,0.0455 -0.110587,0.0455 -0.07338,0 -0.113686,-0.0475 -0.04031,-0.0475 -0.04031,-0.13952 v -1.16581 q 0,-0.0992 0.04444,-0.14366 0.04444,-0.0444 0.143658,-0.0444 h 0.499188 q 0.103352,0 0.176732,0.009 0.07338,0.008 0.13229,0.0351 0.07131,0.03 0.126089,0.0858 0.05478,0.0558 0.08268,0.13023 0.02894,0.0734 0.02894,0.15606 0,0.16949 -0.09612,0.27078 -0.09508,0.10128 -0.289384,0.14366 0.08165,0.0434 0.156061,0.12815 0.07441,0.0848 0.13229,0.18087 0.05891,0.0951 0.09095,0.17259 0.03307,0.0765 0.03307,0.10542 0,0.03 -0.01964,0.0599 -0.0186,0.0289 -0.05168,0.0455 -0.03307,0.0176 -0.07648,0.0176 -0.05168,0 -0.08682,-0.0248 -0.03514,-0.0238 -0.06098,-0.061 -0.0248,-0.0372 -0.06821,-0.10955 l -0.122988,-0.20464 q -0.06614,-0.11265 -0.118855,-0.17156 -0.05167,-0.0589 -0.105418,-0.0806 -0.05374,-0.0217 -0.135391,-0.0217 z m 0.175698,-0.63665 H 16.21116 v 0.41651 h 0.274915 q 0.110586,0 0.186033,-0.0186 0.07545,-0.0196 0.11472,-0.0651 0.04031,-0.0465 0.04031,-0.12713 0,-0.063 -0.03204,-0.11058 -0.03204,-0.0486 -0.08888,-0.0724 -0.05374,-0.0227 -0.211871,-0.0227 z"
           inkscape:connector-curvature="0" />
        <path
           id="path2511"
           style="font-style:normal;font-variant:normal;font-weight:normal;font-stretch:normal;font-size:2.11664009px;font-family:'Arial Rounded MT Bold';-inkscape-font-specification:'Arial Rounded MT Bold, ';stroke-width:0.26458001"
           d="m 17.83998,198.31181 h -0.107485 v 0.48679 q 0,0.0961 -0.04237,0.14159 -0.04237,0.0455 -0.110587,0.0455 -0.07338,0 -0.113686,-0.0475 -0.04031,-0.0475 -0.04031,-0.13952 v -1.16581 q 0,-0.0992 0.04444,-0.14366 0.04444,-0.0444 0.143659,-0.0444 h 0.499188 q 0.103351,0 0.176731,0.009 0.07338,0.008 0.13229,0.0351 0.07131,0.03 0.126089,0.0858 0.05478,0.0558 0.08268,0.13023 0.02894,0.0734 0.02894,0.15606 0,0.16949 -0.09612,0.27078 -0.09508,0.10128 -0.289384,0.14366 0.08165,0.0434 0.156061,0.12815 0.07441,0.0848 0.13229,0.18087 0.05891,0.0951 0.09095,0.17259 0.03307,0.0765 0.03307,0.10542 0,0.03 -0.01964,0.0599 -0.0186,0.0289 -0.05168,0.0455 -0.03307,0.0176 -0.07648,0.0176 -0.05168,0 -0.08682,-0.0248 -0.03514,-0.0238 -0.06098,-0.061 -0.0248,-0.0372 -0.06821,-0.10955 l -0.122988,-0.20464 q -0.06614,-0.11265 -0.118854,-0.17156 -0.05168,-0.0589 -0.105419,-0.0806 -0.05374,-0.0217 -0.135391,-0.0217 z m 0.175698,-0.63665 h -0.283183 v 0.41651 h 0.274915 q 0.110586,0 0.186033,-0.0186 0.07545,-0.0196 0.11472,-0.0651 0.04031,-0.0465 0.04031,-0.12713 0,-0.063 -0.03204,-0.11058 -0.03204,-0.0486 -0.08888,-0.0724 -0.05374,-0.0227 -0.211871,-0.0227 z"
           inkscape:connector-curvature="0" />
        <path
           id="path2513"
           style="font-style:normal;font-variant:normal;font-weight:normal;font-stretch:normal;font-size:2.11664009px;font-family:'Arial Rounded MT Bold';-inkscape-font-specification:'Arial Rounded MT Bold, ';stroke-width:0.26458001"
           d="m 18.961345,198.7986 v -1.19372 q 0,-0.093 0.04237,-0.13952 0.04237,-0.0465 0.109553,-0.0465 0.06925,0 0.111619,0.0465 0.04341,0.0455 0.04341,0.13952 v 1.19372 q 0,0.0941 -0.04341,0.14055 -0.04237,0.0465 -0.111619,0.0465 -0.06614,0 -0.109553,-0.0465 -0.04237,-0.0475 -0.04237,-0.14055 z"
           inkscape:connector-curvature="0" />
        <path
           id="path2515"
           style="font-style:normal;font-variant:normal;font-weight:normal;font-stretch:normal;font-size:2.11664009px;font-family:'Arial Rounded MT Bold';-inkscape-font-specification:'Arial Rounded MT Bold, ';stroke-width:0.26458001"
           d="m 20.608769,197.68136 h -0.691422 v 0.37207 h 0.636646 q 0.07028,0 0.104385,0.032 0.03514,0.031 0.03514,0.0827 0,0.0517 -0.03411,0.0848 -0.03411,0.032 -0.105418,0.032 h -0.636646 v 0.43097 h 0.715193 q 0.07235,0 0.108519,0.0341 0.03721,0.0331 0.03721,0.0889 0,0.0538 -0.03721,0.0879 -0.03617,0.0331 -0.108519,0.0331 H 19.79849 q -0.100251,0 -0.144693,-0.0444 -0.04341,-0.0444 -0.04341,-0.14366 v -1.13893 q 0,-0.0661 0.01964,-0.10749 0.01964,-0.0424 0.06098,-0.061 0.04237,-0.0196 0.107486,-0.0196 h 0.810276 q 0.07338,0 0.108519,0.0331 0.03617,0.032 0.03617,0.0848 0,0.0537 -0.03617,0.0868 -0.03514,0.032 -0.108519,0.032 z"
           inkscape:connector-curvature="0" />
        <path
           id="path2517"
           style="font-style:normal;font-variant:normal;font-weight:normal;font-stretch:normal;font-size:2.11664009px;font-family:'Arial Rounded MT Bold';-inkscape-font-specification:'Arial Rounded MT Bold, ';stroke-width:0.26458001"
           d="M 21.436615,198.31181 H 21.32913 v 0.48679 q 0,0.0961 -0.04237,0.14159 -0.04237,0.0455 -0.110587,0.0455 -0.07338,0 -0.113686,-0.0475 -0.04031,-0.0475 -0.04031,-0.13952 v -1.16581 q 0,-0.0992 0.04444,-0.14366 0.04444,-0.0444 0.143658,-0.0444 h 0.499188 q 0.103352,0 0.176732,0.009 0.07338,0.008 0.13229,0.0351 0.07131,0.03 0.126089,0.0858 0.05478,0.0558 0.08268,0.13023 0.02894,0.0734 0.02894,0.15606 0,0.16949 -0.09612,0.27078 -0.09508,0.10128 -0.289384,0.14366 0.08165,0.0434 0.156061,0.12815 0.07441,0.0848 0.13229,0.18087 0.05891,0.0951 0.09095,0.17259 0.03307,0.0765 0.03307,0.10542 0,0.03 -0.01964,0.0599 -0.0186,0.0289 -0.05168,0.0455 -0.03307,0.0176 -0.07648,0.0176 -0.05168,0 -0.08682,-0.0248 -0.03514,-0.0238 -0.06098,-0.061 -0.0248,-0.0372 -0.06821,-0.10955 l -0.122988,-0.20464 q -0.06614,-0.11265 -0.118855,-0.17156 -0.05167,-0.0589 -0.105418,-0.0806 -0.05374,-0.0217 -0.135391,-0.0217 z m 0.175698,-0.63665 H 21.32913 v 0.41651 h 0.274915 q 0.110586,0 0.186033,-0.0186 0.07545,-0.0196 0.11472,-0.0651 0.04031,-0.0465 0.04031,-0.12713 0,-0.063 -0.03204,-0.11058 -0.03204,-0.0486 -0.08888,-0.0724 -0.05374,-0.0227 -0.211871,-0.0227 z"
           inkscape:connector-curvature="0" />
      </g>
      <path
         inkscape:connector-curvature="0"
         id="path5059"
         d="m 17.509698,184.7968 a 5.9726642,6.3724858 0.0115115 0 0 -5.961724,6.38405 5.9726642,6.3724858 0.0115115 0 0 0.0019,0.0356 h 0.0025 a 5.6774752,5.6374929 0 0 1 -0.0019,-0.0475 5.6774752,5.6374929 0 0 1 5.677474,-5.63749 5.6774752,5.6374929 0 0 1 5.677475,5.63749 5.6774752,5.6374929 0 0 1 -0.0025,0.0475 h 0.588488 a 5.9726642,6.3724858 0.0115115 0 0 0.0019,-0.0593 5.9726642,6.3724858 0.0115115 0 0 -5.983589,-6.36031 z"
         style="opacity:1;fill:#000000;fill-opacity:1;stroke:#000000;stroke-width:0.12089112;stroke-linecap:round;stroke-linejoin:miter;stroke-miterlimit:4;stroke-dasharray:none;stroke-opacity:1" />
    </g>
    <g
       aria-label="NOCTURNAL  AMPLITUDE MODULATION ENCODER"
       style="font-style:normal;font-variant:normal;font-weight:normal;font-stretch:normal;font-size:2.82218671px;line-height:1.25;font-family:'Arial Rounded MT Bold';-inkscape-font-specification:'Arial Rounded MT Bold, ';letter-spacing:0px;word-spacing:0px;fill:#000000;fill-opacity:1;stroke:none;stroke-width:0.26458001"
       id="text5073"
       transform="translate(0,0.52916)">
      <path
         d="m 11.157269,140.18894 0.590138,0.89296 v -0.90123 q 0,-0.0879 0.03721,-0.13126 0.03824,-0.0444 0.102318,-0.0444 0.06614,0 0.104385,0.0444 0.03824,0.0434 0.03824,0.13126 v 1.19164 q 0,0.19947 -0.165362,0.19947 -0.04134,0 -0.07441,-0.0124 -0.03307,-0.0114 -0.06201,-0.0372 -0.02894,-0.0258 -0.05374,-0.0599 -0.0248,-0.0351 -0.04961,-0.0713 l -0.575668,-0.88263 v 0.88779 q 0,0.0868 -0.04031,0.13126 -0.04031,0.0444 -0.103352,0.0444 -0.06511,0 -0.104385,-0.0444 -0.03927,-0.0455 -0.03927,-0.13126 v -1.1689 q 0,-0.0744 0.01654,-0.11679 0.01964,-0.0465 0.06511,-0.0754 0.04547,-0.03 0.09818,-0.03 0.04134,0 0.07028,0.0134 0.02997,0.0134 0.05168,0.0362 0.02274,0.0227 0.04547,0.0589 0.02377,0.0362 0.04857,0.0754 z"
         style="font-style:normal;font-variant:normal;font-weight:normal;font-stretch:normal;font-size:2.11664009px;font-family:'Arial Rounded MT Bold';-inkscape-font-specification:'Arial Rounded MT Bold, ';text-align:center;text-anchor:middle;stroke-width:0.26458001"
         id="path2391"
         inkscape:connector-curvature="0" />
      <path
         d="m 13.032067,140.00497 q 0.235641,0 0.404104,0.0961 0.169497,0.0951 0.256312,0.27181 0.08682,0.1757 0.08682,0.41341 0,0.1757 -0.04754,0.31936 -0.04754,0.14366 -0.142625,0.24907 -0.09508,0.10542 -0.233575,0.16123 -0.138491,0.0558 -0.317289,0.0558 -0.177765,0 -0.318323,-0.0568 -0.140558,-0.0579 -0.234608,-0.16226 -0.09405,-0.10439 -0.142625,-0.25115 -0.04754,-0.14676 -0.04754,-0.31729 0,-0.17466 0.04961,-0.32039 0.05064,-0.14572 0.145725,-0.24804 0.09508,-0.10232 0.231508,-0.15606 0.136424,-0.0548 0.310055,-0.0548 z m 0.436143,0.77927 q 0,-0.16639 -0.05374,-0.28835 -0.05374,-0.12195 -0.153993,-0.18396 -0.09922,-0.063 -0.228407,-0.063 -0.09198,0 -0.170531,0.0351 -0.07751,0.0341 -0.134357,0.10025 -0.05581,0.0662 -0.08888,0.1695 -0.03204,0.10232 -0.03204,0.23047 0,0.12919 0.03204,0.23358 0.03307,0.10438 0.09198,0.17363 0.05994,0.0682 0.136424,0.10232 0.07751,0.0341 0.169497,0.0341 0.11782,0 0.216004,-0.0589 0.09922,-0.0589 0.157095,-0.1819 0.05891,-0.12299 0.05891,-0.30282 z"
         style="font-style:normal;font-variant:normal;font-weight:normal;font-stretch:normal;font-size:2.11664009px;font-family:'Arial Rounded MT Bold';-inkscape-font-specification:'Arial Rounded MT Bold, ';text-align:center;text-anchor:middle;stroke-width:0.26458001"
         id="path2393"
         inkscape:connector-curvature="0" />
      <path
         d="m 15.33474,141.06743 q 0,0.0723 -0.03617,0.15709 -0.03514,0.0837 -0.111619,0.16536 -0.07648,0.0806 -0.195335,0.13126 -0.118854,0.0506 -0.276982,0.0506 -0.119888,0 -0.218072,-0.0227 -0.09818,-0.0227 -0.178798,-0.0703 -0.07958,-0.0486 -0.146759,-0.12713 -0.05994,-0.0713 -0.102318,-0.15916 -0.04237,-0.0889 -0.06408,-0.18913 -0.02067,-0.10025 -0.02067,-0.21291 0,-0.18293 0.05271,-0.32762 0.05374,-0.14469 0.15296,-0.24701 0.09922,-0.10335 0.232541,-0.15709 0.133324,-0.0538 0.284217,-0.0538 0.183966,0 0.327624,0.0734 0.143659,0.0734 0.220139,0.1819 0.07648,0.10749 0.07648,0.2036 0,0.0527 -0.03721,0.093 -0.03721,0.0403 -0.08992,0.0403 -0.05891,0 -0.08888,-0.0279 -0.02894,-0.0279 -0.06511,-0.0961 -0.05994,-0.11265 -0.141591,-0.16846 -0.08061,-0.0558 -0.199469,-0.0558 -0.189133,0 -0.301787,0.14366 -0.111619,0.14366 -0.111619,0.40824 0,0.17673 0.04961,0.29455 0.04961,0.11679 0.140559,0.17467 0.09095,0.0579 0.212904,0.0579 0.13229,0 0.223239,-0.0651 0.09198,-0.0661 0.138491,-0.19327 0.01964,-0.0599 0.04858,-0.0971 0.02894,-0.0382 0.09302,-0.0382 0.05478,0 0.09405,0.0382 0.03927,0.0382 0.03927,0.0951 z"
         style="font-style:normal;font-variant:normal;font-weight:normal;font-stretch:normal;font-size:2.11664009px;font-family:'Arial Rounded MT Bold';-inkscape-font-specification:'Arial Rounded MT Bold, ';text-align:center;text-anchor:middle;stroke-width:0.26458001"
         id="path2395"
         inkscape:connector-curvature="0" />
      <path
         d="m 16.594595,140.28402 h -0.334859 v 1.1007 q 0,0.0951 -0.04237,0.14159 -0.04237,0.0455 -0.109553,0.0455 -0.06821,0 -0.111619,-0.0465 -0.04237,-0.0465 -0.04237,-0.14055 v -1.1007 h -0.33486 q -0.07855,0 -0.116787,-0.0341 -0.03824,-0.0351 -0.03824,-0.092 0,-0.0589 0.03927,-0.093 0.04031,-0.0341 0.115753,-0.0341 h 0.975639 q 0.07958,0 0.117821,0.0351 0.03927,0.0351 0.03927,0.092 0,0.0568 -0.03927,0.092 -0.03927,0.0341 -0.117821,0.0341 z"
         style="font-style:normal;font-variant:normal;font-weight:normal;font-stretch:normal;font-size:2.11664009px;font-family:'Arial Rounded MT Bold';-inkscape-font-specification:'Arial Rounded MT Bold, ';text-align:center;text-anchor:middle;stroke-width:0.26458001"
         id="path2397"
         inkscape:connector-curvature="0" />
      <path
         d="m 16.935655,140.91963 v -0.72862 q 0,-0.093 0.04134,-0.13953 0.04237,-0.0465 0.110586,-0.0465 0.07131,0 0.112653,0.0465 0.04237,0.0465 0.04237,0.13953 v 0.74516 q 0,0.12712 0.0279,0.2129 0.02894,0.0848 0.101285,0.13229 0.07235,0.0465 0.202569,0.0465 0.179832,0 0.254245,-0.0951 0.07441,-0.0961 0.07441,-0.29042 v -0.75136 q 0,-0.0941 0.04134,-0.13953 0.04134,-0.0465 0.110587,-0.0465 0.06924,0 0.111619,0.0465 0.04341,0.0455 0.04341,0.13953 v 0.72862 q 0,0.17777 -0.03514,0.29662 -0.03411,0.11886 -0.130223,0.20877 -0.08268,0.0765 -0.192233,0.11162 -0.109553,0.0351 -0.256312,0.0351 -0.174664,0 -0.300753,-0.0372 -0.126089,-0.0382 -0.20567,-0.11679 -0.07958,-0.0796 -0.116787,-0.20257 -0.03721,-0.12402 -0.03721,-0.29559 z"
         style="font-style:normal;font-variant:normal;font-weight:normal;font-stretch:normal;font-size:2.11664009px;font-family:'Arial Rounded MT Bold';-inkscape-font-specification:'Arial Rounded MT Bold, ';text-align:center;text-anchor:middle;stroke-width:0.26458001"
         id="path2399"
         inkscape:connector-curvature="0" />
      <path
         d="m 18.954111,140.89793 h -0.107485 v 0.48679 q 0,0.0961 -0.04237,0.14159 -0.04238,0.0455 -0.110587,0.0455 -0.07338,0 -0.113686,-0.0475 -0.04031,-0.0475 -0.04031,-0.13952 v -1.16581 q 0,-0.0992 0.04444,-0.14366 0.04444,-0.0444 0.143658,-0.0444 h 0.499189 q 0.103351,0 0.176731,0.009 0.07338,0.008 0.13229,0.0351 0.07131,0.03 0.126089,0.0858 0.05478,0.0558 0.08268,0.13023 0.02894,0.0734 0.02894,0.15606 0,0.16949 -0.09612,0.27078 -0.09508,0.10128 -0.289384,0.14366 0.08165,0.0434 0.156061,0.12815 0.07441,0.0847 0.13229,0.18087 0.05891,0.0951 0.09095,0.1726 0.03307,0.0765 0.03307,0.10541 0,0.03 -0.01964,0.0599 -0.0186,0.0289 -0.05168,0.0455 -0.03307,0.0176 -0.07648,0.0176 -0.05168,0 -0.08681,-0.0248 -0.03514,-0.0238 -0.06098,-0.061 -0.0248,-0.0372 -0.06821,-0.10955 l -0.122988,-0.20464 q -0.06614,-0.11265 -0.118854,-0.17156 -0.05168,-0.0589 -0.105419,-0.0806 -0.05374,-0.0217 -0.135391,-0.0217 z m 0.175698,-0.63665 h -0.283183 v 0.41651 h 0.274915 q 0.110586,0 0.186033,-0.0186 0.07545,-0.0196 0.11472,-0.0651 0.04031,-0.0465 0.04031,-0.12713 0,-0.063 -0.03204,-0.11058 -0.03204,-0.0486 -0.08888,-0.0724 -0.05374,-0.0227 -0.211871,-0.0227 z"
         style="font-style:normal;font-variant:normal;font-weight:normal;font-stretch:normal;font-size:2.11664009px;font-family:'Arial Rounded MT Bold';-inkscape-font-specification:'Arial Rounded MT Bold, ';text-align:center;text-anchor:middle;stroke-width:0.26458001"
         id="path2401"
         inkscape:connector-curvature="0" />
      <path
         d="m 20.463044,140.18894 0.590137,0.89296 v -0.90123 q 0,-0.0879 0.03721,-0.13126 0.03824,-0.0444 0.102318,-0.0444 0.06614,0 0.104385,0.0444 0.03824,0.0434 0.03824,0.13126 v 1.19164 q 0,0.19947 -0.165362,0.19947 -0.04134,0 -0.07441,-0.0124 -0.03307,-0.0114 -0.06201,-0.0372 -0.02894,-0.0258 -0.05374,-0.0599 -0.02481,-0.0351 -0.04961,-0.0713 l -0.575668,-0.88263 v 0.88779 q 0,0.0868 -0.04031,0.13126 -0.04031,0.0444 -0.103352,0.0444 -0.06511,0 -0.104385,-0.0444 -0.03927,-0.0455 -0.03927,-0.13126 v -1.1689 q 0,-0.0744 0.01654,-0.11679 0.01964,-0.0465 0.06511,-0.0754 0.04547,-0.03 0.09818,-0.03 0.04134,0 0.07028,0.0134 0.02997,0.0134 0.05168,0.0362 0.02274,0.0227 0.04547,0.0589 0.02377,0.0362 0.04857,0.0754 z"
         style="font-style:normal;font-variant:normal;font-weight:normal;font-stretch:normal;font-size:2.11664009px;font-family:'Arial Rounded MT Bold';-inkscape-font-specification:'Arial Rounded MT Bold, ';text-align:center;text-anchor:middle;stroke-width:0.26458001"
         id="path2403"
         inkscape:connector-curvature="0" />
      <path
         d="m 22.613791,141.37438 -0.07235,-0.19017 h -0.615976 l -0.07235,0.1943 q -0.04237,0.11369 -0.07235,0.154 -0.02997,0.0393 -0.09818,0.0393 -0.05788,0 -0.102318,-0.0424 -0.04444,-0.0424 -0.04444,-0.0961 0,-0.031 0.01033,-0.0641 0.01034,-0.0331 0.03411,-0.092 l 0.387568,-0.98391 q 0.01654,-0.0424 0.03927,-0.10128 0.02377,-0.0599 0.04961,-0.0992 0.02687,-0.0393 0.06924,-0.063 0.04341,-0.0248 0.106452,-0.0248 0.06408,0 0.106453,0.0248 0.04341,0.0238 0.06925,0.062 0.02687,0.0382 0.04444,0.0827 0.0186,0.0434 0.04651,0.11679 l 0.395837,0.9777 q 0.04651,0.11162 0.04651,0.16226 0,0.0527 -0.04444,0.0971 -0.04341,0.0434 -0.105419,0.0434 -0.03617,0 -0.06201,-0.0134 -0.02584,-0.0124 -0.04341,-0.0341 -0.01757,-0.0227 -0.03824,-0.0682 -0.01964,-0.0465 -0.03411,-0.0816 z m -0.607707,-0.42064 h 0.452679 l -0.228407,-0.62528 z"
         style="font-style:normal;font-variant:normal;font-weight:normal;font-stretch:normal;font-size:2.11664009px;font-family:'Arial Rounded MT Bold';-inkscape-font-specification:'Arial Rounded MT Bold, ';text-align:center;text-anchor:middle;stroke-width:0.26458001"
         id="path2405"
         inkscape:connector-curvature="0" />
      <path
         d="m 23.468507,140.19101 v 1.10276 h 0.622177 q 0.07441,0 0.113687,0.0362 0.04031,0.0362 0.04031,0.091 0,0.0558 -0.03927,0.0909 -0.03927,0.0341 -0.11472,0.0341 H 23.34966 q -0.100251,0 -0.144692,-0.0444 -0.04341,-0.0444 -0.04341,-0.14366 v -1.16683 q 0,-0.093 0.04134,-0.13953 0.04237,-0.0465 0.110586,-0.0465 0.06925,0 0.11162,0.0465 0.04341,0.0455 0.04341,0.13953 z"
         style="font-style:normal;font-variant:normal;font-weight:normal;font-stretch:normal;font-size:2.11664009px;font-family:'Arial Rounded MT Bold';-inkscape-font-specification:'Arial Rounded MT Bold, ';text-align:center;text-anchor:middle;stroke-width:0.26458001"
         id="path2407"
         inkscape:connector-curvature="0" />
      <path
         d="m 12.29517,148.42985 -0.07235,-0.19017 h -0.615976 l -0.07235,0.1943 q -0.04237,0.11369 -0.07235,0.154 -0.02997,0.0393 -0.09818,0.0393 -0.05788,0 -0.102318,-0.0424 -0.04444,-0.0424 -0.04444,-0.0961 0,-0.031 0.01034,-0.0641 0.01033,-0.0331 0.03411,-0.092 l 0.387569,-0.98391 q 0.01654,-0.0424 0.03927,-0.10128 0.02377,-0.06 0.04961,-0.0992 0.02687,-0.0393 0.06925,-0.0631 0.04341,-0.0248 0.106452,-0.0248 0.06408,0 0.106452,0.0248 0.04341,0.0238 0.06924,0.062 0.02687,0.0382 0.04444,0.0827 0.0186,0.0434 0.04651,0.11678 l 0.395836,0.97771 q 0.04651,0.11162 0.04651,0.16226 0,0.0527 -0.04444,0.0971 -0.04341,0.0434 -0.105418,0.0434 -0.03617,0 -0.06201,-0.0134 -0.02584,-0.0124 -0.04341,-0.0341 -0.01757,-0.0227 -0.03824,-0.0682 -0.01964,-0.0465 -0.03411,-0.0817 z m -0.607707,-0.42064 h 0.45268 l -0.228407,-0.62528 z"
         style="font-style:normal;font-variant:normal;font-weight:normal;font-stretch:normal;font-size:2.11664009px;font-family:'Arial Rounded MT Bold';-inkscape-font-specification:'Arial Rounded MT Bold, ';text-align:center;text-anchor:middle;stroke-width:0.26458001"
         id="path2409"
         inkscape:connector-curvature="0" />
      <path
         d="m 13.358658,148.373 -0.242877,-0.9653 v 1.04592 q 0,0.0868 -0.03927,0.13022 -0.03824,0.0434 -0.102318,0.0434 -0.06201,0 -0.101285,-0.0424 -0.03927,-0.0434 -0.03927,-0.13125 v -1.19888 q 0,-0.0992 0.05167,-0.13332 0.05168,-0.0351 0.139525,-0.0351 h 0.09508 q 0.08578,0 0.124022,0.0155 0.03927,0.0155 0.05788,0.0558 0.0186,0.0403 0.04237,0.13126 l 0.220139,0.82991 0.220139,-0.82991 q 0.02377,-0.0909 0.04237,-0.13126 0.0186,-0.0403 0.05684,-0.0558 0.03927,-0.0155 0.125055,-0.0155 h 0.09508 q 0.08785,0 0.139525,0.0351 0.05168,0.0341 0.05168,0.13332 v 1.19888 q 0,0.0868 -0.03927,0.13022 -0.03824,0.0434 -0.103351,0.0434 -0.06098,0 -0.100251,-0.0434 -0.03927,-0.0434 -0.03927,-0.13022 v -1.04592 l -0.242876,0.9653 q -0.02377,0.0941 -0.03927,0.1385 -0.01447,0.0434 -0.05478,0.0796 -0.04031,0.0362 -0.11162,0.0362 -0.05374,0 -0.09095,-0.0238 -0.03721,-0.0227 -0.05788,-0.0589 -0.02067,-0.0362 -0.03307,-0.0796 -0.01137,-0.0444 -0.02377,-0.092 z"
         style="font-style:normal;font-variant:normal;font-weight:normal;font-stretch:normal;font-size:2.11664009px;font-family:'Arial Rounded MT Bold';-inkscape-font-specification:'Arial Rounded MT Bold, ';text-align:center;text-anchor:middle;stroke-width:0.26458001"
         id="path2411"
         inkscape:connector-curvature="0" />
      <path
         d="m 15.200382,148.01127 h -0.281116 v 0.42891 q 0,0.092 -0.04341,0.13953 -0.04341,0.0475 -0.109553,0.0475 -0.06925,0 -0.11162,-0.0465 -0.04237,-0.0475 -0.04237,-0.13849 v -1.16787 q 0,-0.10129 0.04651,-0.1447 0.04651,-0.0434 0.147793,-0.0434 h 0.393769 q 0.174665,0 0.268715,0.0269 0.09302,0.0258 0.160194,0.0858 0.06821,0.0599 0.103352,0.14676 0.03514,0.0868 0.03514,0.19533 0,0.23151 -0.142626,0.3514 -0.142625,0.11885 -0.424775,0.11885 z m -0.07441,-0.69452 h -0.206703 v 0.46302 h 0.206703 q 0.108519,0 0.180866,-0.0227 0.07338,-0.0227 0.111619,-0.0744 0.03824,-0.0517 0.03824,-0.13539 0,-0.10026 -0.05891,-0.1633 -0.06615,-0.0672 -0.271815,-0.0672 z"
         style="font-style:normal;font-variant:normal;font-weight:normal;font-stretch:normal;font-size:2.11664009px;font-family:'Arial Rounded MT Bold';-inkscape-font-specification:'Arial Rounded MT Bold, ';text-align:center;text-anchor:middle;stroke-width:0.26458001"
         id="path2413"
         inkscape:connector-curvature="0" />
      <path
         d="m 16.326915,147.24647 v 1.10276 h 0.622176 q 0.07441,0 0.113687,0.0362 0.04031,0.0362 0.04031,0.0909 0,0.0558 -0.03927,0.0909 -0.03927,0.0341 -0.11472,0.0341 H 16.20806 q -0.100251,0 -0.144692,-0.0444 -0.04341,-0.0444 -0.04341,-0.14366 v -1.16684 q 0,-0.093 0.04134,-0.13952 0.04237,-0.0465 0.110586,-0.0465 0.06925,0 0.11162,0.0465 0.04341,0.0455 0.04341,0.13952 z"
         style="font-style:normal;font-variant:normal;font-weight:normal;font-stretch:normal;font-size:2.11664009px;font-family:'Arial Rounded MT Bold';-inkscape-font-specification:'Arial Rounded MT Bold, ';text-align:center;text-anchor:middle;stroke-width:0.26458001"
         id="path2415"
         inkscape:connector-curvature="0" />
      <path
         d="m 17.315989,148.44018 v -1.19371 q 0,-0.093 0.04237,-0.13952 0.04237,-0.0465 0.109553,-0.0465 0.06925,0 0.11162,0.0465 0.04341,0.0455 0.04341,0.13952 v 1.19371 q 0,0.0941 -0.04341,0.14056 -0.04237,0.0465 -0.11162,0.0465 -0.06614,0 -0.109553,-0.0465 -0.04237,-0.0475 -0.04237,-0.14056 z"
         style="font-style:normal;font-variant:normal;font-weight:normal;font-stretch:normal;font-size:2.11664009px;font-family:'Arial Rounded MT Bold';-inkscape-font-specification:'Arial Rounded MT Bold, ';text-align:center;text-anchor:middle;stroke-width:0.26458001"
         id="path2417"
         inkscape:connector-curvature="0" />
      <path
         d="m 18.948944,147.33949 h -0.334859 v 1.10069 q 0,0.0951 -0.04237,0.14159 -0.04237,0.0455 -0.109553,0.0455 -0.06821,0 -0.11162,-0.0465 -0.04237,-0.0465 -0.04237,-0.14056 v -1.10069 h -0.334859 q -0.07855,0 -0.116787,-0.0341 -0.03824,-0.0351 -0.03824,-0.092 0,-0.0589 0.03927,-0.093 0.04031,-0.0341 0.115754,-0.0341 h 0.975639 q 0.07958,0 0.117821,0.0351 0.03927,0.0351 0.03927,0.092 0,0.0568 -0.03927,0.092 -0.03927,0.0341 -0.117821,0.0341 z"
         style="font-style:normal;font-variant:normal;font-weight:normal;font-stretch:normal;font-size:2.11664009px;font-family:'Arial Rounded MT Bold';-inkscape-font-specification:'Arial Rounded MT Bold, ';text-align:center;text-anchor:middle;stroke-width:0.26458001"
         id="path2419"
         inkscape:connector-curvature="0" />
      <path
         d="m 19.290004,147.9751 v -0.72863 q 0,-0.093 0.04134,-0.13952 0.04237,-0.0465 0.110586,-0.0465 0.07131,0 0.112653,0.0465 0.04237,0.0465 0.04237,0.13952 v 0.74517 q 0,0.12712 0.02791,0.2129 0.02894,0.0847 0.101285,0.13229 0.07235,0.0465 0.202569,0.0465 0.179832,0 0.254245,-0.0951 0.07441,-0.0961 0.07441,-0.29042 v -0.75137 q 0,-0.094 0.04134,-0.13952 0.04134,-0.0465 0.110587,-0.0465 0.06924,0 0.111619,0.0465 0.04341,0.0455 0.04341,0.13952 v 0.72863 q 0,0.17777 -0.03514,0.29662 -0.03411,0.11885 -0.130223,0.20877 -0.08268,0.0765 -0.192233,0.11162 -0.109553,0.0351 -0.256312,0.0351 -0.174664,0 -0.300753,-0.0372 -0.126089,-0.0382 -0.20567,-0.11678 -0.07958,-0.0796 -0.116787,-0.20257 Q 19.29,148.1466 19.29,147.97504 Z"
         style="font-style:normal;font-variant:normal;font-weight:normal;font-stretch:normal;font-size:2.11664009px;font-family:'Arial Rounded MT Bold';-inkscape-font-specification:'Arial Rounded MT Bold, ';text-align:center;text-anchor:middle;stroke-width:0.26458001"
         id="path2421"
         inkscape:connector-curvature="0" />
      <path
         d="m 21.086255,147.08628 h 0.39997 q 0.156061,0 0.267681,0.0289 0.111619,0.0289 0.202569,0.10851 0.236675,0.20257 0.236675,0.61598 0,0.13642 -0.02377,0.24908 -0.02377,0.11265 -0.07338,0.2036 -0.04961,0.0899 -0.127122,0.16123 -0.06098,0.0548 -0.133324,0.0879 -0.07235,0.0331 -0.15606,0.0465 -0.08268,0.0134 -0.187067,0.0134 h -0.39997 q -0.08371,0 -0.126089,-0.0248 -0.04237,-0.0258 -0.05581,-0.0713 -0.0124,-0.0465 -0.0124,-0.11988 v -1.11103 q 0,-0.0992 0.04444,-0.14366 0.04444,-0.0444 0.143659,-0.0444 z m 0.118854,0.24287 v 1.02835 h 0.232541 q 0.07648,0 0.119888,-0.004 0.04341,-0.004 0.08992,-0.0207 0.04651,-0.0165 0.08061,-0.0465 0.153994,-0.13022 0.153994,-0.44855 0,-0.22427 -0.06821,-0.33589 -0.06718,-0.11162 -0.166396,-0.14159 -0.09922,-0.031 -0.239776,-0.031 z"
         style="font-style:normal;font-variant:normal;font-weight:normal;font-stretch:normal;font-size:2.11664009px;font-family:'Arial Rounded MT Bold';-inkscape-font-specification:'Arial Rounded MT Bold, ';text-align:center;text-anchor:middle;stroke-width:0.26458001"
         id="path2423"
         inkscape:connector-curvature="0" />
      <path
         d="m 23.461273,147.32295 h -0.691422 v 0.37207 h 0.636646 q 0.07028,0 0.104385,0.032 0.03514,0.031 0.03514,0.0827 0,0.0517 -0.03411,0.0847 -0.03411,0.032 -0.105419,0.032 h -0.636646 v 0.43097 h 0.715193 q 0.07235,0 0.108519,0.0341 0.03721,0.0331 0.03721,0.0889 0,0.0537 -0.03721,0.0879 -0.03617,0.0331 -0.108519,0.0331 h -0.834047 q -0.100251,0 -0.144692,-0.0444 -0.04341,-0.0444 -0.04341,-0.14366 v -1.13893 q 0,-0.0662 0.01964,-0.10749 0.01964,-0.0424 0.06098,-0.061 0.04237,-0.0196 0.107485,-0.0196 h 0.810276 q 0.07338,0 0.10852,0.0331 0.03617,0.032 0.03617,0.0848 0,0.0537 -0.03617,0.0868 -0.03514,0.032 -0.10852,0.032 z"
         style="font-style:normal;font-variant:normal;font-weight:normal;font-stretch:normal;font-size:2.11664009px;font-family:'Arial Rounded MT Bold';-inkscape-font-specification:'Arial Rounded MT Bold, ';text-align:center;text-anchor:middle;stroke-width:0.26458001"
         id="path2425"
         inkscape:connector-curvature="0" />
      <path
         d="m 10.874086,151.90074 -0.242876,-0.96531 v 1.04592 q 0,0.0868 -0.03927,0.13022 -0.03824,0.0434 -0.102318,0.0434 -0.06201,0 -0.101285,-0.0424 -0.03927,-0.0434 -0.03927,-0.13126 v -1.19888 q 0,-0.0992 0.05168,-0.13332 0.05167,-0.0351 0.139524,-0.0351 h 0.09508 q 0.08578,0 0.124022,0.0155 0.03927,0.0155 0.05788,0.0558 0.0186,0.0403 0.04237,0.13126 l 0.220138,0.82991 0.220139,-0.82991 q 0.02377,-0.0909 0.04237,-0.13126 0.0186,-0.0403 0.05684,-0.0558 0.03927,-0.0155 0.125055,-0.0155 h 0.09508 q 0.08785,0 0.139524,0.0351 0.05168,0.0341 0.05168,0.13332 v 1.19888 q 0,0.0868 -0.03927,0.13022 -0.03824,0.0434 -0.103351,0.0434 -0.06098,0 -0.100251,-0.0434 -0.03927,-0.0434 -0.03927,-0.13022 v -1.04592 l -0.242876,0.96531 q -0.02377,0.094 -0.03927,0.13849 -0.01447,0.0434 -0.05478,0.0796 -0.04031,0.0362 -0.11162,0.0362 -0.05374,0 -0.09095,-0.0238 -0.03721,-0.0227 -0.05788,-0.0589 -0.02067,-0.0362 -0.03307,-0.0796 -0.01137,-0.0444 -0.02377,-0.092 z"
         style="font-style:normal;font-variant:normal;font-weight:normal;font-stretch:normal;font-size:2.11664009px;font-family:'Arial Rounded MT Bold';-inkscape-font-specification:'Arial Rounded MT Bold, ';text-align:center;text-anchor:middle;stroke-width:0.26458001"
         id="path2427"
         inkscape:connector-curvature="0" />
      <path
         d="m 12.794358,150.58817 q 0.235642,0 0.404105,0.0961 0.169496,0.0951 0.256311,0.27181 0.08682,0.1757 0.08682,0.41341 0,0.1757 -0.04754,0.31936 -0.04754,0.14366 -0.142625,0.24907 -0.09508,0.10542 -0.233575,0.16123 -0.138491,0.0558 -0.317289,0.0558 -0.177765,0 -0.318323,-0.0568 -0.140558,-0.0579 -0.234608,-0.16226 -0.09405,-0.10439 -0.142625,-0.25115 -0.04754,-0.14676 -0.04754,-0.31729 0,-0.17466 0.04961,-0.32039 0.05064,-0.14572 0.145726,-0.24804 0.09508,-0.10232 0.231507,-0.15606 0.136424,-0.0548 0.310055,-0.0548 z m 0.436144,0.77927 q 0,-0.16639 -0.05374,-0.28835 -0.05374,-0.12195 -0.153994,-0.18396 -0.09922,-0.0631 -0.228407,-0.0631 -0.09198,0 -0.17053,0.0351 -0.07751,0.0341 -0.134357,0.10025 -0.05581,0.0662 -0.08888,0.1695 -0.03204,0.10232 -0.03204,0.23047 0,0.12919 0.03204,0.23358 0.03307,0.10438 0.09198,0.17363 0.05994,0.0682 0.136424,0.10232 0.07751,0.0341 0.169497,0.0341 0.117821,0 0.216005,-0.0589 0.09922,-0.0589 0.157094,-0.1819 0.05891,-0.12298 0.05891,-0.30282 z"
         style="font-style:normal;font-variant:normal;font-weight:normal;font-stretch:normal;font-size:2.11664009px;font-family:'Arial Rounded MT Bold';-inkscape-font-specification:'Arial Rounded MT Bold, ';text-align:center;text-anchor:middle;stroke-width:0.26458001"
         id="path2429"
         inkscape:connector-curvature="0" />
      <path
         d="m 13.996337,150.61401 h 0.39997 q 0.156061,0 0.267681,0.0289 0.111619,0.0289 0.202569,0.10852 0.236675,0.20257 0.236675,0.61597 0,0.13643 -0.02377,0.24908 -0.02377,0.11265 -0.07338,0.2036 -0.04961,0.0899 -0.127122,0.16123 -0.06098,0.0548 -0.133324,0.0879 -0.07235,0.0331 -0.15606,0.0465 -0.08268,0.0134 -0.187067,0.0134 h -0.39997 q -0.08371,0 -0.126089,-0.0248 -0.04237,-0.0258 -0.05581,-0.0713 -0.0124,-0.0465 -0.0124,-0.11989 v -1.11103 q 0,-0.0992 0.04444,-0.14366 0.04444,-0.0444 0.143659,-0.0444 z m 0.118854,0.24288 v 1.02834 h 0.232541 q 0.07648,0 0.119888,-0.004 0.04341,-0.004 0.08992,-0.0207 0.04651,-0.0165 0.08061,-0.0465 0.153994,-0.13022 0.153994,-0.44854 0,-0.22428 -0.06821,-0.3359 -0.06718,-0.11162 -0.166396,-0.14159 -0.09922,-0.031 -0.239776,-0.031 z"
         style="font-style:normal;font-variant:normal;font-weight:normal;font-stretch:normal;font-size:2.11664009px;font-family:'Arial Rounded MT Bold';-inkscape-font-specification:'Arial Rounded MT Bold, ';text-align:center;text-anchor:middle;stroke-width:0.26458001"
         id="path2431"
         inkscape:connector-curvature="0" />
      <path
         d="m 15.375046,151.50283 v -0.72862 q 0,-0.093 0.04134,-0.13953 0.04237,-0.0465 0.110586,-0.0465 0.07131,0 0.112653,0.0465 0.04237,0.0465 0.04237,0.13953 v 0.74516 q 0,0.12712 0.0279,0.2129 0.02894,0.0848 0.101285,0.13229 0.07235,0.0465 0.202569,0.0465 0.179832,0 0.254245,-0.0951 0.07441,-0.0961 0.07441,-0.29042 v -0.75136 q 0,-0.0941 0.04134,-0.13953 0.04134,-0.0465 0.110586,-0.0465 0.06924,0 0.11162,0.0465 0.04341,0.0455 0.04341,0.13953 v 0.72862 q 0,0.17777 -0.03514,0.29662 -0.03411,0.11886 -0.130223,0.20877 -0.08268,0.0765 -0.192234,0.11162 -0.109553,0.0351 -0.256312,0.0351 -0.174664,0 -0.300753,-0.0372 -0.126089,-0.0382 -0.20567,-0.11679 -0.07958,-0.0796 -0.116787,-0.20257 -0.03721,-0.12402 -0.03721,-0.29559 z"
         style="font-style:normal;font-variant:normal;font-weight:normal;font-stretch:normal;font-size:2.11664009px;font-family:'Arial Rounded MT Bold';-inkscape-font-specification:'Arial Rounded MT Bold, ';text-align:center;text-anchor:middle;stroke-width:0.26458001"
         id="path2433"
         inkscape:connector-curvature="0" />
      <path
         d="m 17.281883,150.77421 v 1.10276 h 0.622176 q 0.07441,0 0.113687,0.0362 0.04031,0.0362 0.04031,0.0909 0,0.0558 -0.03927,0.091 -0.03927,0.0341 -0.114721,0.0341 h -0.74103 q -0.100251,0 -0.144693,-0.0444 -0.04341,-0.0444 -0.04341,-0.14366 v -1.16683 q 0,-0.093 0.04134,-0.13953 0.04237,-0.0465 0.110587,-0.0465 0.06924,0 0.111619,0.0465 0.04341,0.0455 0.04341,0.13953 z"
         style="font-style:normal;font-variant:normal;font-weight:normal;font-stretch:normal;font-size:2.11664009px;font-family:'Arial Rounded MT Bold';-inkscape-font-specification:'Arial Rounded MT Bold, ';text-align:center;text-anchor:middle;stroke-width:0.26458001"
         id="path2435"
         inkscape:connector-curvature="0" />
      <path
         d="m 19.201122,151.95758 -0.07235,-0.19017 H 18.5128 l -0.07235,0.1943 q -0.04237,0.11369 -0.07235,0.154 -0.02997,0.0393 -0.09818,0.0393 -0.05788,0 -0.102318,-0.0424 -0.04444,-0.0424 -0.04444,-0.0961 0,-0.031 0.01034,-0.0641 0.01033,-0.0331 0.03411,-0.092 l 0.387568,-0.98391 q 0.01654,-0.0424 0.03927,-0.10128 0.02377,-0.0599 0.04961,-0.0992 0.02687,-0.0393 0.06924,-0.063 0.04341,-0.0248 0.106452,-0.0248 0.06408,0 0.106452,0.0248 0.04341,0.0238 0.06925,0.062 0.02687,0.0382 0.04444,0.0827 0.0186,0.0434 0.04651,0.11679 l 0.395837,0.9777 q 0.04651,0.11162 0.04651,0.16226 0,0.0527 -0.04444,0.0971 -0.04341,0.0434 -0.105419,0.0434 -0.03617,0 -0.06201,-0.0134 -0.02584,-0.0124 -0.04341,-0.0341 -0.01757,-0.0227 -0.03824,-0.0682 -0.01964,-0.0465 -0.03411,-0.0816 z m -0.607708,-0.42064 h 0.45268 l -0.228407,-0.62528 z"
         style="font-style:normal;font-variant:normal;font-weight:normal;font-stretch:normal;font-size:2.11664009px;font-family:'Arial Rounded MT Bold';-inkscape-font-specification:'Arial Rounded MT Bold, ';text-align:center;text-anchor:middle;stroke-width:0.26458001"
         id="path2437"
         inkscape:connector-curvature="0" />
      <path
         d="m 20.550893,150.86722 h -0.334859 v 1.1007 q 0,0.0951 -0.04237,0.14159 -0.04237,0.0455 -0.109553,0.0455 -0.06821,0 -0.111619,-0.0465 -0.04237,-0.0465 -0.04237,-0.14055 v -1.1007 h -0.334859 q -0.07855,0 -0.116787,-0.0341 -0.03824,-0.0351 -0.03824,-0.092 0,-0.0589 0.03927,-0.093 0.04031,-0.0341 0.115753,-0.0341 h 0.975639 q 0.07958,0 0.117821,0.0351 0.03927,0.0351 0.03927,0.092 0,0.0568 -0.03927,0.092 -0.03927,0.0341 -0.117821,0.0341 z"
         style="font-style:normal;font-variant:normal;font-weight:normal;font-stretch:normal;font-size:2.11664009px;font-family:'Arial Rounded MT Bold';-inkscape-font-specification:'Arial Rounded MT Bold, ';text-align:center;text-anchor:middle;stroke-width:0.26458001"
         id="path2439"
         inkscape:connector-curvature="0" />
      <path
         d="m 20.904356,151.96792 v -1.19371 q 0,-0.093 0.04237,-0.13953 0.04237,-0.0465 0.109553,-0.0465 0.06924,0 0.111619,0.0465 0.04341,0.0455 0.04341,0.13953 v 1.19371 q 0,0.0941 -0.04341,0.14055 -0.04237,0.0465 -0.111619,0.0465 -0.06614,0 -0.109553,-0.0465 -0.04237,-0.0475 -0.04237,-0.14055 z"
         style="font-style:normal;font-variant:normal;font-weight:normal;font-stretch:normal;font-size:2.11664009px;font-family:'Arial Rounded MT Bold';-inkscape-font-specification:'Arial Rounded MT Bold, ';text-align:center;text-anchor:middle;stroke-width:0.26458001"
         id="path2441"
         inkscape:connector-curvature="0" />
      <path
         d="m 22.220021,150.58817 q 0.235641,0 0.404104,0.0961 0.169497,0.0951 0.256312,0.27181 0.08682,0.1757 0.08682,0.41341 0,0.1757 -0.04754,0.31936 -0.04754,0.14366 -0.142625,0.24907 -0.09508,0.10542 -0.233575,0.16123 -0.138491,0.0558 -0.317289,0.0558 -0.177765,0 -0.318323,-0.0568 -0.140558,-0.0579 -0.234608,-0.16226 -0.09405,-0.10439 -0.142625,-0.25115 -0.04754,-0.14676 -0.04754,-0.31729 0,-0.17466 0.04961,-0.32039 0.05064,-0.14572 0.145725,-0.24804 0.09508,-0.10232 0.231508,-0.15606 0.136424,-0.0548 0.310055,-0.0548 z m 0.436143,0.77927 q 0,-0.16639 -0.05374,-0.28835 -0.05374,-0.12195 -0.153993,-0.18396 -0.09922,-0.0631 -0.228407,-0.0631 -0.09198,0 -0.17053,0.0351 -0.07751,0.0341 -0.134357,0.10025 -0.05581,0.0662 -0.08888,0.1695 -0.03204,0.10232 -0.03204,0.23047 0,0.12919 0.03204,0.23358 0.03307,0.10438 0.09198,0.17363 0.05994,0.0682 0.136424,0.10232 0.07751,0.0341 0.169497,0.0341 0.117821,0 0.216005,-0.0589 0.09922,-0.0589 0.157094,-0.1819 0.05891,-0.12298 0.05891,-0.30282 z"
         style="font-style:normal;font-variant:normal;font-weight:normal;font-stretch:normal;font-size:2.11664009px;font-family:'Arial Rounded MT Bold';-inkscape-font-specification:'Arial Rounded MT Bold, ';text-align:center;text-anchor:middle;stroke-width:0.26458001"
         id="path2443"
         inkscape:connector-curvature="0" />
      <path
         d="m 23.631803,150.77214 0.590138,0.89296 v -0.90123 q 0,-0.0879 0.03721,-0.13126 0.03824,-0.0444 0.102318,-0.0444 0.06615,0 0.104385,0.0444 0.03824,0.0434 0.03824,0.13126 v 1.19164 q 0,0.19947 -0.165362,0.19947 -0.04134,0 -0.07441,-0.0124 -0.03307,-0.0114 -0.06201,-0.0372 -0.02894,-0.0258 -0.05374,-0.0599 -0.0248,-0.0351 -0.04961,-0.0713 l -0.575668,-0.88263 v 0.88779 q 0,0.0868 -0.04031,0.13126 -0.04031,0.0444 -0.103352,0.0444 -0.06511,0 -0.104385,-0.0444 -0.03927,-0.0455 -0.03927,-0.13126 v -1.1689 q 0,-0.0744 0.01654,-0.11679 0.01964,-0.0465 0.06511,-0.0754 0.04547,-0.03 0.09818,-0.03 0.04134,0 0.07028,0.0134 0.02997,0.0134 0.05167,0.0362 0.02274,0.0227 0.04547,0.0589 0.02377,0.0362 0.04858,0.0755 z"
         style="font-style:normal;font-variant:normal;font-weight:normal;font-stretch:normal;font-size:2.11664009px;font-family:'Arial Rounded MT Bold';-inkscape-font-specification:'Arial Rounded MT Bold, ';text-align:center;text-anchor:middle;stroke-width:0.26458001"
         id="path2445"
         inkscape:connector-curvature="0" />
      <path
         d="m 13.214999,154.37842 h -0.691422 v 0.37206 h 0.636646 q 0.07028,0 0.104385,0.032 0.03514,0.031 0.03514,0.0827 0,0.0517 -0.03411,0.0848 -0.03411,0.032 -0.105418,0.032 h -0.636646 v 0.43098 h 0.715193 q 0.07235,0 0.108519,0.0341 0.03721,0.0331 0.03721,0.0889 0,0.0537 -0.03721,0.0879 -0.03617,0.0331 -0.108519,0.0331 H 12.40472 q -0.100251,0 -0.144693,-0.0444 -0.04341,-0.0444 -0.04341,-0.14366 v -1.13894 q 0,-0.0661 0.01964,-0.10748 0.01964,-0.0424 0.06098,-0.061 0.04237,-0.0196 0.107486,-0.0196 h 0.810276 q 0.07338,0 0.108519,0.0331 0.03617,0.032 0.03617,0.0847 0,0.0538 -0.03617,0.0868 -0.03514,0.032 -0.108519,0.032 z"
         style="font-style:normal;font-variant:normal;font-weight:normal;font-stretch:normal;font-size:2.11664009px;font-family:'Arial Rounded MT Bold';-inkscape-font-specification:'Arial Rounded MT Bold, ';text-align:center;text-anchor:middle;stroke-width:0.26458001"
         id="path2447"
         inkscape:connector-curvature="0" />
      <path
         d="m 14.030443,154.29987 0.590137,0.89296 v -0.90123 q 0,-0.0878 0.03721,-0.13125 0.03824,-0.0444 0.102318,-0.0444 0.06615,0 0.104385,0.0444 0.03824,0.0434 0.03824,0.13125 v 1.19165 q 0,0.19947 -0.165363,0.19947 -0.04134,0 -0.07441,-0.0124 -0.03307,-0.0114 -0.06201,-0.0372 -0.02894,-0.0258 -0.05374,-0.0599 -0.0248,-0.0351 -0.04961,-0.0713 l -0.575668,-0.88262 v 0.88779 q 0,0.0868 -0.04031,0.13125 -0.04031,0.0444 -0.103351,0.0444 -0.06511,0 -0.104385,-0.0444 -0.03927,-0.0455 -0.03927,-0.13125 v -1.16891 q 0,-0.0744 0.01654,-0.11679 0.01964,-0.0465 0.06511,-0.0754 0.04548,-0.03 0.09818,-0.03 0.04134,0 0.07028,0.0134 0.02997,0.0134 0.05168,0.0362 0.02274,0.0227 0.04547,0.0589 0.02377,0.0362 0.04857,0.0754 z"
         style="font-style:normal;font-variant:normal;font-weight:normal;font-stretch:normal;font-size:2.11664009px;font-family:'Arial Rounded MT Bold';-inkscape-font-specification:'Arial Rounded MT Bold, ';text-align:center;text-anchor:middle;stroke-width:0.26458001"
         id="path2449"
         inkscape:connector-curvature="0" />
      <path
         d="m 16.529484,155.17836 q 0,0.0724 -0.03617,0.15709 -0.03514,0.0837 -0.11162,0.16537 -0.07648,0.0806 -0.195335,0.13125 -0.118854,0.0506 -0.276982,0.0506 -0.119888,0 -0.218072,-0.0227 -0.09818,-0.0227 -0.178798,-0.0703 -0.07958,-0.0486 -0.146759,-0.12712 -0.05994,-0.0713 -0.102318,-0.15916 -0.04237,-0.0889 -0.06408,-0.18914 -0.02067,-0.10025 -0.02067,-0.2129 0,-0.18293 0.05271,-0.32763 0.05374,-0.14469 0.15296,-0.24701 0.09922,-0.10335 0.232541,-0.15709 0.133324,-0.0537 0.284217,-0.0537 0.183966,0 0.327625,0.0734 0.143658,0.0734 0.220138,0.18189 0.07648,0.10749 0.07648,0.20361 0,0.0527 -0.03721,0.093 -0.03721,0.0403 -0.08992,0.0403 -0.05891,0 -0.08888,-0.0279 -0.02894,-0.0279 -0.06511,-0.0961 -0.05994,-0.11265 -0.141591,-0.16846 -0.08061,-0.0558 -0.199469,-0.0558 -0.189133,0 -0.301786,0.14365 -0.11162,0.14366 -0.11162,0.40824 0,0.17673 0.04961,0.29455 0.04961,0.11679 0.140558,0.17467 0.09095,0.0579 0.212904,0.0579 0.13229,0 0.223239,-0.0651 0.09198,-0.0661 0.138491,-0.19326 0.01964,-0.06 0.04858,-0.0971 0.02894,-0.0382 0.09302,-0.0382 0.05478,0 0.09405,0.0382 0.03927,0.0382 0.03927,0.0951 z"
         style="font-style:normal;font-variant:normal;font-weight:normal;font-stretch:normal;font-size:2.11664009px;font-family:'Arial Rounded MT Bold';-inkscape-font-specification:'Arial Rounded MT Bold, ';text-align:center;text-anchor:middle;stroke-width:0.26458001"
         id="path2451"
         inkscape:connector-curvature="0" />
      <path
         d="m 17.47205,154.11591 q 0.235641,0 0.404104,0.0961 0.169497,0.0951 0.256312,0.27182 0.08682,0.1757 0.08682,0.4134 0,0.1757 -0.04754,0.31936 -0.04754,0.14366 -0.142625,0.24908 -0.09508,0.10542 -0.233575,0.16123 -0.138491,0.0558 -0.317289,0.0558 -0.177765,0 -0.318323,-0.0568 -0.140558,-0.0579 -0.234608,-0.16226 -0.09405,-0.10438 -0.142625,-0.25114 -0.04754,-0.14676 -0.04754,-0.31729 0,-0.17467 0.04961,-0.32039 0.05064,-0.14573 0.145726,-0.24805 0.09508,-0.10231 0.231507,-0.15606 0.136424,-0.0548 0.310055,-0.0548 z m 0.436143,0.77927 q 0,-0.1664 -0.05374,-0.28835 -0.05374,-0.12196 -0.153994,-0.18397 -0.09922,-0.063 -0.228407,-0.063 -0.09198,0 -0.17053,0.0351 -0.07751,0.0341 -0.134357,0.10025 -0.05581,0.0661 -0.08888,0.16949 -0.03204,0.10232 -0.03204,0.23048 0,0.12919 0.03204,0.23357 0.03307,0.10439 0.09198,0.17363 0.05994,0.0682 0.136424,0.10232 0.07751,0.0341 0.169497,0.0341 0.117821,0 0.216005,-0.0589 0.09922,-0.0589 0.157094,-0.1819 0.05891,-0.12299 0.05891,-0.30282 z"
         style="font-style:normal;font-variant:normal;font-weight:normal;font-stretch:normal;font-size:2.11664009px;font-family:'Arial Rounded MT Bold';-inkscape-font-specification:'Arial Rounded MT Bold, ';text-align:center;text-anchor:middle;stroke-width:0.26458001"
         id="path2453"
         inkscape:connector-curvature="0" />
      <path
         d="m 18.674029,154.14174 h 0.39997 q 0.156061,0 0.267681,0.0289 0.11162,0.0289 0.202569,0.10852 0.236675,0.20257 0.236675,0.61598 0,0.13642 -0.02377,0.24907 -0.02377,0.11266 -0.07338,0.20361 -0.04961,0.0899 -0.127123,0.16123 -0.06098,0.0548 -0.133323,0.0878 -0.07235,0.0331 -0.156061,0.0465 -0.08268,0.0134 -0.187067,0.0134 h -0.39997 q -0.08372,0 -0.126089,-0.0248 -0.04237,-0.0258 -0.05581,-0.0713 -0.0124,-0.0465 -0.0124,-0.11989 v -1.11103 q 0,-0.0992 0.04444,-0.14366 0.04444,-0.0444 0.143659,-0.0444 z m 0.118854,0.24288 v 1.02835 h 0.232541 q 0.07648,0 0.119888,-0.004 0.04341,-0.004 0.08992,-0.0207 0.04651,-0.0165 0.08061,-0.0465 0.153994,-0.13023 0.153994,-0.44855 0,-0.22427 -0.06821,-0.33589 -0.06718,-0.11162 -0.166396,-0.14159 -0.09922,-0.031 -0.239776,-0.031 z"
         style="font-style:normal;font-variant:normal;font-weight:normal;font-stretch:normal;font-size:2.11664009px;font-family:'Arial Rounded MT Bold';-inkscape-font-specification:'Arial Rounded MT Bold, ';text-align:center;text-anchor:middle;stroke-width:0.26458001"
         id="path2455"
         inkscape:connector-curvature="0" />
      <path
         d="m 21.049048,154.37842 h -0.691422 v 0.37206 h 0.636645 q 0.07028,0 0.104385,0.032 0.03514,0.031 0.03514,0.0827 0,0.0517 -0.03411,0.0848 -0.03411,0.032 -0.105419,0.032 h -0.636645 v 0.43098 h 0.715192 q 0.07235,0 0.10852,0.0341 0.03721,0.0331 0.03721,0.0889 0,0.0537 -0.03721,0.0879 -0.03617,0.0331 -0.10852,0.0331 h -0.834047 q -0.100251,0 -0.144692,-0.0444 -0.04341,-0.0444 -0.04341,-0.14366 v -1.13894 q 0,-0.0661 0.01964,-0.10748 0.01964,-0.0424 0.06098,-0.061 0.04237,-0.0196 0.107485,-0.0196 h 0.810277 q 0.07338,0 0.108519,0.0331 0.03617,0.032 0.03617,0.0847 0,0.0538 -0.03617,0.0868 -0.03514,0.032 -0.108519,0.032 z"
         style="font-style:normal;font-variant:normal;font-weight:normal;font-stretch:normal;font-size:2.11664009px;font-family:'Arial Rounded MT Bold';-inkscape-font-specification:'Arial Rounded MT Bold, ';text-align:center;text-anchor:middle;stroke-width:0.26458001"
         id="path2457"
         inkscape:connector-curvature="0" />
      <path
         d="m 21.876894,155.00886 h -0.107486 v 0.48679 q 0,0.0961 -0.04237,0.14159 -0.04237,0.0455 -0.110586,0.0455 -0.07338,0 -0.113687,-0.0476 -0.04031,-0.0475 -0.04031,-0.13952 v -1.16581 q 0,-0.0992 0.04444,-0.14366 0.04444,-0.0444 0.143659,-0.0444 h 0.499188 q 0.103351,0 0.176731,0.009 0.07338,0.008 0.13229,0.0351 0.07131,0.03 0.126089,0.0858 0.05478,0.0558 0.08268,0.13022 0.02894,0.0734 0.02894,0.15606 0,0.1695 -0.09612,0.27078 -0.09508,0.10129 -0.289385,0.14366 0.08165,0.0434 0.156061,0.12816 0.07441,0.0847 0.13229,0.18086 0.05891,0.0951 0.09095,0.1726 0.03307,0.0765 0.03307,0.10542 0,0.03 -0.01964,0.0599 -0.0186,0.0289 -0.05168,0.0455 -0.03307,0.0176 -0.07648,0.0176 -0.05168,0 -0.08682,-0.0248 -0.03514,-0.0238 -0.06098,-0.061 -0.0248,-0.0372 -0.06821,-0.10955 l -0.122988,-0.20463 q -0.06615,-0.11266 -0.118854,-0.17157 -0.05168,-0.0589 -0.105419,-0.0806 -0.05374,-0.0217 -0.13539,-0.0217 z m 0.175697,-0.63664 h -0.283183 v 0.4165 h 0.274915 q 0.110586,0 0.186033,-0.0186 0.07545,-0.0196 0.11472,-0.0651 0.04031,-0.0465 0.04031,-0.12712 0,-0.0631 -0.03204,-0.11059 -0.03204,-0.0486 -0.08888,-0.0723 -0.05374,-0.0227 -0.211871,-0.0227 z"
         style="font-style:normal;font-variant:normal;font-weight:normal;font-stretch:normal;font-size:2.11664009px;font-family:'Arial Rounded MT Bold';-inkscape-font-specification:'Arial Rounded MT Bold, ';text-align:center;text-anchor:middle;stroke-width:0.26458001"
         id="path2459"
         inkscape:connector-curvature="0" />
    </g>
  </g>
  <g
     inkscape:groupmode="layer"
     id="layer16"
     inkscape:label="Logo Layer"
     sodipodi:insensitive="true"
     style="display:inline">
    <path
       inkscape:connector-curvature="0"
       style="opacity:1;fill:#000000;fill-opacity:1;stroke:#000000;stroke-width:0.13772766;stroke-linecap:round;stroke-linejoin:miter;stroke-miterlimit:4;stroke-dasharray:none;stroke-opacity:1"
       d="m 8.5070792,40.468336 a 1.3516661,1.3516661 0 0 0 -1.3518384,1.35184 1.3516661,1.3516661 0 0 0 1.3518384,1.35184 1.3516661,1.3516661 0 0 0 0.2604459,-0.02687 1.3516661,1.3516661 0 0 1 -1.0831243,-1.324967 1.3516661,1.3516661 0 0 1 1.090359,-1.324966 1.3516661,1.3516661 0 0 0 -0.2676806,-0.02687 z"
       id="path2571" />
  </g>
  <g
     style="display:none"
     transform="translate(-9.583231,-102.78498)"
     id="g2371"
     inkscape:groupmode="layer"
     inkscape:label="Text Layer"
     sodipodi:insensitive="true">
    <g
       transform="matrix(0.99998734,0,0,0.99998734,-60.662146,3.6658946)"
       id="g2327">
      <g
         id="g2311"
         transform="translate(7.6067714,48.286462)">
        <path
           style="display:inline;fill:#c95e15;fill-opacity:1;fill-rule:nonzero;stroke:none;stroke-width:0.16477577;stroke-miterlimit:4;stroke-dasharray:none;stroke-opacity:1"
           d="m 68.983457,70.370372 c -0.09943,0 -0.216308,-0.07472 -0.265151,-0.16836 l -1.595273,-3.061604 c -0.04885,-0.09363 -0.04885,-0.240231 0,-0.334812 l 1.595273,-3.061636 c 0.04885,-0.09363 0.16572,-0.167407 0.265151,-0.167407 h 3.187059 c 0.09943,0 0.216308,0.07378 0.265153,0.167407 l 1.595274,3.061636 c 0.04885,0.09458 0.04885,0.241185 0,0.334812 l -1.595274,3.061604 c -0.04885,0.09364 -0.165716,0.16836 -0.265153,0.16836 z m 0,0"
           id="path2307"
           inkscape:connector-curvature="0" />
        <path
           inkscape:connector-curvature="0"
           id="path2309"
           d="m 68.981973,69.844344 c -0.09952,0 -0.21651,-0.06897 -0.265398,-0.155402 l -1.596759,-2.825966 c -0.04889,-0.08642 -0.04889,-0.221742 0,-0.309043 l 1.596759,-2.825996 c 0.04889,-0.08642 0.165874,-0.154522 0.265398,-0.154522 H 72.172 c 0.09952,0 0.21651,0.0681 0.2654,0.154522 l 1.59676,2.825996 c 0.04889,0.0873 0.04889,0.222622 0,0.309043 l -1.59676,2.825966 c -0.04889,0.08643 -0.16587,0.155402 -0.2654,0.155402 z m 0,0"
           style="display:inline;fill:#dccece;fill-opacity:1;fill-rule:nonzero;stroke:#7e7e7e;stroke-width:0.15838151;stroke-miterlimit:4;stroke-dasharray:none;stroke-opacity:1" />
      </g>
      <g
         id="g2317"
         transform="translate(7.6067714,60.523442)">
        <path
           inkscape:connector-curvature="0"
           id="path2313"
           d="m 68.983457,70.370372 c -0.09943,0 -0.216308,-0.07472 -0.265151,-0.16836 l -1.595273,-3.061604 c -0.04885,-0.09363 -0.04885,-0.240231 0,-0.334812 l 1.595273,-3.061636 c 0.04885,-0.09363 0.16572,-0.167407 0.265151,-0.167407 h 3.187059 c 0.09943,0 0.216308,0.07378 0.265153,0.167407 l 1.595274,3.061636 c 0.04885,0.09458 0.04885,0.241185 0,0.334812 l -1.595274,3.061604 c -0.04885,0.09364 -0.165716,0.16836 -0.265153,0.16836 z m 0,0"
           style="display:inline;fill:#c95e15;fill-opacity:1;fill-rule:nonzero;stroke:none;stroke-width:0.16477577;stroke-miterlimit:4;stroke-dasharray:none;stroke-opacity:1" />
        <path
           style="display:inline;fill:#dccece;fill-opacity:1;fill-rule:nonzero;stroke:#7e7e7e;stroke-width:0.15838151;stroke-miterlimit:4;stroke-dasharray:none;stroke-opacity:1"
           d="m 68.981973,69.844344 c -0.09952,0 -0.21651,-0.06897 -0.265398,-0.155402 l -1.596759,-2.825966 c -0.04889,-0.08642 -0.04889,-0.221742 0,-0.309043 l 1.596759,-2.825996 c 0.04889,-0.08642 0.165874,-0.154522 0.265398,-0.154522 H 72.172 c 0.09952,0 0.21651,0.0681 0.2654,0.154522 l 1.59676,2.825996 c 0.04889,0.0873 0.04889,0.222622 0,0.309043 l -1.59676,2.825966 c -0.04889,0.08643 -0.16587,0.155402 -0.2654,0.155402 z m 0,0"
           id="path2315"
           inkscape:connector-curvature="0" />
      </g>
      <text
         xml:space="preserve"
         style="font-style:normal;font-variant:normal;font-weight:normal;font-stretch:normal;font-size:10.58333397px;line-height:1.25;font-family:'DejaVu Sans';-inkscape-font-specification:'DejaVu Sans';letter-spacing:0px;word-spacing:0px;fill:#000000;fill-opacity:1;stroke:none;stroke-width:0.26458335"
         x="76.256226"
         y="120.68388"
         id="text2321"><tspan
           sodipodi:role="line"
           id="tspan2319"
           x="76.256226"
           y="120.68388"
           style="font-style:normal;font-variant:normal;font-weight:normal;font-stretch:normal;font-size:2.11666679px;font-family:'Arial Rounded MT Bold';-inkscape-font-specification:'Arial Rounded MT Bold, ';stroke-width:0.26458335">IN 1</tspan></text>
      <text
         id="text2325"
         y="133.05316"
         x="76.10688"
         style="font-style:normal;font-variant:normal;font-weight:normal;font-stretch:normal;font-size:10.58333397px;line-height:1.25;font-family:'DejaVu Sans';-inkscape-font-specification:'DejaVu Sans';letter-spacing:0px;word-spacing:0px;fill:#000000;fill-opacity:1;stroke:none;stroke-width:0.26458335"
         xml:space="preserve"><tspan
           style="font-style:normal;font-variant:normal;font-weight:normal;font-stretch:normal;font-size:2.11666679px;font-family:'Arial Rounded MT Bold';-inkscape-font-specification:'Arial Rounded MT Bold, ';stroke-width:0.26458335"
           y="133.05316"
           x="76.10688"
           id="tspan2323"
           sodipodi:role="line">IN 2</tspan></text>
    </g>
    <g
       transform="matrix(0.99998734,0,0,0.99998734,-52.414079,49.041368)"
       id="g2337">
      <path
         style="fill:#212121;fill-opacity:1;fill-rule:nonzero;stroke:none;stroke-width:0.24310529"
         d="m 73.723366,111.71765 c 0,-0.43021 -0.352578,-0.78171 -0.782786,-0.78171 h -6.009988 c -0.430208,0 -0.782784,0.3515 -0.782784,0.78171 v 9.13358 c 0,0.43021 0.352576,0.78279 0.782784,0.78279 h 6.009988 c 0.430208,0 0.782786,-0.35258 0.782786,-0.78279 z m 0,0"
         id="path2329"
         inkscape:connector-curvature="0" />
      <path
         style="display:inline;fill:#dccece;fill-opacity:1;fill-rule:nonzero;stroke:#7e7e7e;stroke-width:0.15838151;stroke-miterlimit:4;stroke-dasharray:none;stroke-opacity:1"
         d="m 68.340572,117.99852 c -0.09952,0 -0.21651,-0.069 -0.265398,-0.1554 l -1.596759,-2.82597 c -0.04889,-0.0864 -0.04889,-0.22174 0,-0.30904 l 1.596759,-2.826 c 0.04889,-0.0864 0.165874,-0.15452 0.265398,-0.15452 h 3.190027 c 0.09952,0 0.21651,0.0681 0.2654,0.15452 l 1.59676,2.826 c 0.04889,0.0873 0.04889,0.22262 0,0.30904 l -1.59676,2.82597 c -0.04889,0.0864 -0.16587,0.1554 -0.2654,0.1554 z m 0,0"
         id="path2331"
         inkscape:connector-curvature="0" />
      <text
         id="text2335"
         y="120.61774"
         x="66.87944"
         style="font-style:normal;font-variant:normal;font-weight:normal;font-stretch:normal;font-size:10.58333397px;line-height:1.25;font-family:'DejaVu Sans';-inkscape-font-specification:'DejaVu Sans';letter-spacing:0px;word-spacing:0px;fill:#000000;fill-opacity:1;stroke:none;stroke-width:0.26458335"
         xml:space="preserve"><tspan
           style="font-style:normal;font-variant:normal;font-weight:normal;font-stretch:normal;font-size:2.11666679px;font-family:'Arial Rounded MT Bold';-inkscape-font-specification:'Arial Rounded MT Bold, ';fill:#ffffff;stroke-width:0.26458335"
           y="120.61774"
           x="66.87944"
           id="tspan2333"
           sodipodi:role="line">OUT 1</tspan></text>
    </g>
    <g
       transform="matrix(0.99998734,0,0,0.99998734,-52.414079,61.410482)"
       id="g2347">
      <path
         inkscape:connector-curvature="0"
         id="path2339"
         d="m 73.723366,111.71765 c 0,-0.43021 -0.352578,-0.78171 -0.782786,-0.78171 h -6.009988 c -0.430208,0 -0.782784,0.3515 -0.782784,0.78171 v 9.13358 c 0,0.43021 0.352576,0.78279 0.782784,0.78279 h 6.009988 c 0.430208,0 0.782786,-0.35258 0.782786,-0.78279 z m 0,0"
         style="fill:#212121;fill-opacity:1;fill-rule:nonzero;stroke:none;stroke-width:0.24310529" />
      <path
         inkscape:connector-curvature="0"
         id="path2341"
         d="m 68.340572,117.99852 c -0.09952,0 -0.21651,-0.069 -0.265398,-0.1554 l -1.596759,-2.82597 c -0.04889,-0.0864 -0.04889,-0.22174 0,-0.30904 l 1.596759,-2.826 c 0.04889,-0.0864 0.165874,-0.15452 0.265398,-0.15452 h 3.190027 c 0.09952,0 0.21651,0.0681 0.2654,0.15452 l 1.59676,2.826 c 0.04889,0.0873 0.04889,0.22262 0,0.30904 l -1.59676,2.82597 c -0.04889,0.0864 -0.16587,0.1554 -0.2654,0.1554 z m 0,0"
         style="display:inline;fill:#dccece;fill-opacity:1;fill-rule:nonzero;stroke:#7e7e7e;stroke-width:0.15838151;stroke-miterlimit:4;stroke-dasharray:none;stroke-opacity:1" />
      <text
         xml:space="preserve"
         style="font-style:normal;font-variant:normal;font-weight:normal;font-stretch:normal;font-size:10.58333397px;line-height:1.25;font-family:'DejaVu Sans';-inkscape-font-specification:'DejaVu Sans';letter-spacing:0px;word-spacing:0px;fill:#000000;fill-opacity:1;stroke:none;stroke-width:0.26458335"
         x="66.730095"
         y="120.61774"
         id="text2345"><tspan
           sodipodi:role="line"
           id="tspan2343"
           x="66.730095"
           y="120.61774"
           style="font-style:normal;font-variant:normal;font-weight:normal;font-stretch:normal;font-size:2.11666679px;font-family:'Arial Rounded MT Bold';-inkscape-font-specification:'Arial Rounded MT Bold, ';fill:#ffffff;stroke-width:0.26458335">OUT 2</tspan></text>
    </g>
    <text
       id="text2351"
       y="111.25153"
       x="12.445034"
       style="font-style:normal;font-weight:normal;font-size:10.58320045px;line-height:1.25;font-family:sans-serif;letter-spacing:0px;word-spacing:0px;fill:#000000;fill-opacity:1;stroke:none;stroke-width:0.26458001"
       xml:space="preserve"><tspan
         style="font-style:normal;font-variant:normal;font-weight:normal;font-stretch:normal;font-size:4.23328018px;font-family:'Arial Rounded MT Bold';-inkscape-font-specification:'Arial Rounded MT Bold, ';stroke-width:0.26458001"
         y="111.25153"
         x="12.445034"
         id="tspan2349"
         sodipodi:role="line">NE-2</tspan></text>
    <text
       id="text2355"
       y="198.95982"
       x="12.652765"
       style="font-style:normal;font-weight:normal;font-size:10.58320045px;line-height:1.25;font-family:sans-serif;letter-spacing:0px;word-spacing:0px;fill:#000000;fill-opacity:1;stroke:none;stroke-width:0.26458001"
       xml:space="preserve"><tspan
         style="font-style:normal;font-variant:normal;font-weight:normal;font-stretch:normal;font-size:2.11664009px;font-family:'Arial Rounded MT Bold';-inkscape-font-specification:'Arial Rounded MT Bold, ';stroke-width:0.26458001"
         y="198.95982"
         x="12.652765"
         id="tspan2353"
         sodipodi:role="line">CARRIER</tspan></text>
    <path
       inkscape:connector-curvature="0"
       id="path2357"
       d="m 17.509698,184.7968 a 5.9726642,6.3724858 0.0115115 0 0 -5.961724,6.38405 5.9726642,6.3724858 0.0115115 0 0 0.0019,0.0356 h 0.0025 a 5.6774752,5.6374929 0 0 1 -0.0019,-0.0475 5.6774752,5.6374929 0 0 1 5.677474,-5.63749 5.6774752,5.6374929 0 0 1 5.677475,5.63749 5.6774752,5.6374929 0 0 1 -0.0025,0.0475 h 0.588488 a 5.9726642,6.3724858 0.0115115 0 0 0.0019,-0.0593 5.9726642,6.3724858 0.0115115 0 0 -5.983589,-6.36031 z"
       style="opacity:1;fill:#000000;fill-opacity:1;stroke:#000000;stroke-width:0.12089112;stroke-linecap:round;stroke-linejoin:miter;stroke-miterlimit:4;stroke-dasharray:none;stroke-opacity:1" />
    <text
       id="text2369"
       y="141.54594"
       x="17.435877"
       style="font-style:normal;font-variant:normal;font-weight:normal;font-stretch:normal;font-size:2.82218671px;line-height:1.25;font-family:'Arial Rounded MT Bold';-inkscape-font-specification:'Arial Rounded MT Bold, ';letter-spacing:0px;word-spacing:0px;fill:#000000;fill-opacity:1;stroke:none;stroke-width:0.26458001"
       xml:space="preserve"><tspan
         style="font-style:normal;font-variant:normal;font-weight:normal;font-stretch:normal;font-size:2.11664009px;font-family:'Arial Rounded MT Bold';-inkscape-font-specification:'Arial Rounded MT Bold, ';text-align:center;text-anchor:middle;stroke-width:0.26458001"
         y="141.54594"
         x="17.435877"
         id="tspan2359"
         sodipodi:role="line">NOCTURNAL</tspan><tspan
         id="tspan2361"
         style="font-style:normal;font-variant:normal;font-weight:normal;font-stretch:normal;font-size:2.11664009px;font-family:'Arial Rounded MT Bold';-inkscape-font-specification:'Arial Rounded MT Bold, ';text-align:center;text-anchor:middle;stroke-width:0.26458001"
         y="145.07368"
         x="17.435877"
         sodipodi:role="line" /><tspan
         id="tspan2363"
         style="font-style:normal;font-variant:normal;font-weight:normal;font-stretch:normal;font-size:2.11664009px;font-family:'Arial Rounded MT Bold';-inkscape-font-specification:'Arial Rounded MT Bold, ';text-align:center;text-anchor:middle;stroke-width:0.26458001"
         y="148.60141"
         x="17.435877"
         sodipodi:role="line">AMPLITUDE</tspan><tspan
         id="tspan2365"
         style="font-style:normal;font-variant:normal;font-weight:normal;font-stretch:normal;font-size:2.11664009px;font-family:'Arial Rounded MT Bold';-inkscape-font-specification:'Arial Rounded MT Bold, ';text-align:center;text-anchor:middle;stroke-width:0.26458001"
         y="152.12915"
         x="17.435877"
         sodipodi:role="line">MODULATION</tspan><tspan
         id="tspan2367"
         style="font-style:normal;font-variant:normal;font-weight:normal;font-stretch:normal;font-size:2.11664009px;font-family:'Arial Rounded MT Bold';-inkscape-font-specification:'Arial Rounded MT Bold, ';text-align:center;text-anchor:middle;stroke-width:0.26458001"
         y="155.65688"
         x="17.435877"
         sodipodi:role="line">ENCODER</tspan></text>
    <rect
       transform="translate(9.583231,102.78498)"
       style="opacity:1;fill:none;fill-opacity:1;stroke:#ffffff;stroke-width:0.09507424;stroke-linecap:round;stroke-linejoin:miter;stroke-miterlimit:4;stroke-dasharray:none;stroke-opacity:1"
       id="rect2579"
       width="15.779726"
       height="4.4326835"
       x="0.047537122"
       y="39.289646" />
  </g>
  <g
     inkscape:groupmode="layer"
     id="layer5"
     inkscape:label="Parameters"
     style="display:none"
     transform="translate(-9.524882,93.673327)"
     sodipodi:insensitive="true">
    <rect
       style="display:inline;opacity:0.53500001;fill:none;fill-opacity:1;stroke:#d9cb18;stroke-width:0.26458335;stroke-linecap:round;stroke-linejoin:round;stroke-miterlimit:4;stroke-dasharray:none;stroke-opacity:1"
       id="rect2552"
       width="9.1281252"
       height="9.0619793"
       x="12.898214"
       y="-9.9007387"
       inkscape:label="CARRIER_LEVEL_PARAM;NocturnalWhiteKnob" />
  </g>
  <g
     inkscape:groupmode="layer"
     id="layer6"
     inkscape:label="Inputs"
     style="display:none"
     transform="translate(-9.524882,93.673327)"
     sodipodi:insensitive="true">
    <rect
       y="-68.703636"
       x="14.188063"
       height="6.4161463"
       width="6.4822922"
       id="rect5088"
       style="display:inline;opacity:0.53500001;fill:none;fill-opacity:1;stroke:#d9cb18;stroke-width:0.26458335;stroke-linecap:round;stroke-linejoin:round;stroke-miterlimit:4;stroke-dasharray:none;stroke-opacity:1"
       inkscape:label="CH2_CV_INPUT" />
    <rect
       inkscape:label="CH1_CV_INPUT"
       style="display:inline;opacity:0.53500001;fill:none;fill-opacity:1;stroke:#d9cb18;stroke-width:0.26458335;stroke-linecap:round;stroke-linejoin:round;stroke-miterlimit:4;stroke-dasharray:none;stroke-opacity:1"
       id="rect2834"
       width="6.4822922"
       height="6.4161463"
       x="14.188063"
       y="-80.94046" />
  </g>
  <g
     inkscape:groupmode="layer"
     id="layer7"
     inkscape:label="Outputs"
     style="display:none"
     transform="translate(-9.524882,93.673327)"
     sodipodi:insensitive="true">
    <rect
       inkscape:label="CH1_SIGNAL_OUTPUT"
       style="display:inline;opacity:0.53500001;fill:none;fill-opacity:1;stroke:#d9cb18;stroke-width:0.26458335;stroke-linecap:round;stroke-linejoin:round;stroke-miterlimit:4;stroke-dasharray:none;stroke-opacity:1"
       id="rect5092"
       width="6.4822922"
       height="6.4161463"
       x="14.188062"
       y="-35.631084" />
    <rect
       y="-23.361189"
       x="14.188062"
       height="6.4161463"
       width="6.4822922"
       id="rect5096"
       style="display:inline;opacity:0.53500001;fill:none;fill-opacity:1;stroke:#d9cb18;stroke-width:0.26458335;stroke-linecap:round;stroke-linejoin:round;stroke-miterlimit:4;stroke-dasharray:none;stroke-opacity:1"
       inkscape:label="CH2_SIGNAL_OUTPUT" />
  </g>
  <g
     inkscape:groupmode="layer"
     id="layer8"
     inkscape:label="Lights"
     style="display:none"
     transform="translate(-9.524882,93.673327)"
     sodipodi:insensitive="true">
    <rect
       style="display:inline;opacity:0.53500001;fill:none;fill-opacity:1;stroke:#e1e120;stroke-width:0.17807202;stroke-linecap:round;stroke-linejoin:round;stroke-miterlimit:4;stroke-dasharray:none;stroke-opacity:1"
       id="rect1799"
       width="2.3371954"
       height="2.3817134"
       x="22.181627"
       y="-78.707901"
       inkscape:label="CH1_WARN_LIGHT;SmallLight&lt;RedLight&gt;" />
    <rect
       inkscape:label="CH2_WARN_LIGHT;SmallLight&lt;RedLight&gt;"
       y="-66.471077"
       x="22.181627"
       height="2.3817134"
       width="2.3371954"
       id="rect1801"
       style="display:inline;opacity:0.53500001;fill:none;fill-opacity:1;stroke:#e1e120;stroke-width:0.17807202;stroke-linecap:round;stroke-linejoin:round;stroke-miterlimit:4;stroke-dasharray:none;stroke-opacity:1" />
  </g>
  <g
     inkscape:groupmode="layer"
     id="layer17"
     inkscape:label="components"
     sodipodi:insensitive="true"
     style="display:none">
    <rect
       style="display:inline;opacity:0.53500001;fill:none;fill-opacity:1;stroke:#ff00ff;stroke-width:0.17807202;stroke-linecap:round;stroke-linejoin:round;stroke-miterlimit:4;stroke-dasharray:none;stroke-opacity:1"
       id="rect1799-6"
       width="2.3371954"
       height="2.3817134"
       x="12.656745"
       y="14.965425"
       inkscape:label="CH1_WARN_LIGHT;SmallLight&lt;RedLight&gt;" />
    <rect
       inkscape:label="CH2_WARN_LIGHT;SmallLight&lt;RedLight&gt;"
       y="27.20225"
       x="12.656745"
       height="2.3817134"
       width="2.3371954"
       id="rect1801-4"
       style="display:inline;opacity:0.53500001;fill:none;fill-opacity:1;stroke:#ff00ff;stroke-width:0.17807202;stroke-linecap:round;stroke-linejoin:round;stroke-miterlimit:4;stroke-dasharray:none;stroke-opacity:1" />
    <rect
       inkscape:label="CH1_SIGNAL_OUTPUT"
       style="display:inline;opacity:0.53500001;fill:none;fill-opacity:1;stroke:#0000ff;stroke-width:0.26458335;stroke-linecap:round;stroke-linejoin:round;stroke-miterlimit:4;stroke-dasharray:none;stroke-opacity:1"
       id="rect5092-5"
       width="6.4822922"
       height="6.4161463"
       x="4.6631799"
       y="58.04224" />
    <rect
       y="70.312134"
       x="4.6631799"
       height="6.4161463"
       width="6.4822922"
       id="rect5096-2"
       style="display:inline;opacity:0.53500001;fill:none;fill-opacity:1;stroke:#0000ff;stroke-width:0.26458335;stroke-linecap:round;stroke-linejoin:round;stroke-miterlimit:4;stroke-dasharray:none;stroke-opacity:1"
       inkscape:label="CH2_SIGNAL_OUTPUT" />
    <rect
       y="24.96969"
       x="4.6631808"
       height="6.4161463"
       width="6.4822922"
       id="rect5088-9"
       style="display:inline;opacity:0.53500001;fill:none;fill-opacity:1;stroke:#00ff00;stroke-width:0.26458335;stroke-linecap:round;stroke-linejoin:round;stroke-miterlimit:4;stroke-dasharray:none;stroke-opacity:1"
       inkscape:label="CH2_CV_INPUT" />
    <rect
       inkscape:label="CH1_CV_INPUT"
       style="display:inline;opacity:0.53500001;fill:none;fill-opacity:1;stroke:#00ff00;stroke-width:0.26458335;stroke-linecap:round;stroke-linejoin:round;stroke-miterlimit:4;stroke-dasharray:none;stroke-opacity:1"
       id="rect2834-1"
       width="6.4822922"
       height="6.4161463"
       x="4.6631808"
       y="12.732866" />
    <rect
       style="display:inline;opacity:0.53500001;fill:none;fill-opacity:1;stroke:#ff00ff;stroke-width:0.26458335;stroke-linecap:round;stroke-linejoin:round;stroke-miterlimit:4;stroke-dasharray:none;stroke-opacity:1"
       id="rect2552-9"
       width="9.1281252"
       height="9.0619793"
       x="3.3733325"
       y="83.772591"
       inkscape:label="CARRIER_LEVEL_PARAM;NocturnalWhiteKnob" />
  </g>
</svg>
