<?xml version="1.0" encoding="UTF-8" standalone="no"?>
<!-- Created with Inkscape (http://www.inkscape.org/) -->

<svg
   xmlns:dc="http://purl.org/dc/elements/1.1/"
   xmlns:cc="http://creativecommons.org/ns#"
   xmlns:rdf="http://www.w3.org/1999/02/22-rdf-syntax-ns#"
   xmlns:svg="http://www.w3.org/2000/svg"
   xmlns="http://www.w3.org/2000/svg"
   xmlns:sodipodi="http://sodipodi.sourceforge.net/DTD/sodipodi-0.dtd"
   xmlns:inkscape="http://www.inkscape.org/namespaces/inkscape"
   width="12.097797mm"
   height="12.097801mm"
   viewBox="0 0 12.097797 12.097802"
   version="1.1"
   id="svg15246"
   sodipodi:docname="NocturnalWhiteKnob.svg"
   inkscape:version="0.92.2 (5c3e80d, 2017-08-06)">
  <defs
     id="defs15240">
    <clipPath
       id="clip89">
      <rect
         y="0"
         x="0"
         width="18"
         height="19"
         id="rect4864" />
    </clipPath>
    <clipPath
       id="clip90">
      <path
         inkscape:connector-curvature="0"
         d="m 0.898438,0.128906 h 16.25 v 17.882813 h -16.25 z m 0,0"
         id="path4861" />
    </clipPath>
    <mask
       id="mask44">
      <g
         style="filter:url(#alpha)"
         id="g4858"
         transform="matrix(0.26458333,0,0,0.26458333,89.358789,128.57765)">
        <rect
           x="0"
           y="0"
           width="3052.8701"
           height="3351.5"
           style="fill:#000000;fill-opacity:0.14999402;stroke:none"
           id="rect4856" />
      </g>
    </mask>
    <filter
       id="alpha"
       filterUnits="objectBoundingBox"
       x="0"
       y="0"
       width="1"
       height="1">
      <feColorMatrix
         type="matrix"
         in="SourceGraphic"
         values="0 0 0 0 1 0 0 0 0 1 0 0 0 0 1 0 0 0 1 0"
         id="feColorMatrix4149" />
    </filter>
    <clipPath
       id="clipPath17821">
      <rect
         y="0"
         x="0"
         width="18"
         height="19"
         id="rect17819" />
    </clipPath>
    <clipPath
       id="clipPath17825">
      <path
         inkscape:connector-curvature="0"
         d="m 0.898438,0.128906 h 16.25 v 17.882813 h -16.25 z m 0,0"
         id="path17823" />
    </clipPath>
    <clipPath
       id="clip87">
      <rect
         y="0"
         x="0"
         width="24"
         height="26"
         id="rect4848" />
    </clipPath>
    <clipPath
       id="clip88">
      <path
         inkscape:connector-curvature="0"
         d="m 0.683594,0.921875 h 22.679687 v 24.9375 H 0.683594 Z m 0,0"
         id="path4845" />
    </clipPath>
    <mask
       id="mask43">
      <g
         style="filter:url(#alpha)"
         id="g4842"
         transform="matrix(0.26458333,0,0,0.26458333,89.358789,128.57765)">
        <rect
           x="0"
           y="0"
           width="3052.8701"
           height="3351.5"
           style="fill:#000000;fill-opacity:0.14999402;stroke:none"
           id="rect4840" />
      </g>
    </mask>
    <filter
       id="filter17836"
       filterUnits="objectBoundingBox"
       x="0"
       y="0"
       width="1"
       height="1">
      <feColorMatrix
         type="matrix"
         in="SourceGraphic"
         values="0 0 0 0 1 0 0 0 0 1 0 0 0 0 1 0 0 0 1 0"
         id="feColorMatrix17834" />
    </filter>
    <clipPath
       id="clipPath17840">
      <rect
         y="0"
         x="0"
         width="24"
         height="26"
         id="rect17838" />
    </clipPath>
    <clipPath
       id="clipPath17844">
      <path
         inkscape:connector-curvature="0"
         d="m 0.683594,0.921875 h 22.679687 v 24.9375 H 0.683594 Z m 0,0"
         id="path17842" />
    </clipPath>
    <clipPath
       id="clip95">
      <rect
         y="0"
         x="0"
         width="18"
         height="18"
         id="rect4912" />
    </clipPath>
    <clipPath
       id="clip96">
      <path
         inkscape:connector-curvature="0"
         d="M 0.140625,0.140625 H 17.199219 V 17.199219 H 0.140625 Z m 0,0"
         id="path4909" />
    </clipPath>
    <mask
       id="mask47">
      <g
         style="filter:url(#alpha-3)"
         id="g4906"
         transform="matrix(0.26458333,0,0,0.26458333,88.611154,119.19859)">
        <rect
           x="0"
           y="0"
           width="3052.8701"
           height="3351.5"
           style="fill:#000000;fill-opacity:0.33000201;stroke:none"
           id="rect4904" />
      </g>
    </mask>
    <filter
       id="alpha-3"
       filterUnits="objectBoundingBox"
       x="0"
       y="0"
       width="1"
       height="1">
      <feColorMatrix
         type="matrix"
         in="SourceGraphic"
         values="0 0 0 0 1 0 0 0 0 1 0 0 0 0 1 0 0 0 1 0"
         id="feColorMatrix4149-6" />
    </filter>
    <clipPath
       id="clipPath18541">
      <rect
         y="0"
         x="0"
         width="18"
         height="18"
         id="rect18539" />
    </clipPath>
    <clipPath
       id="clipPath18545">
      <path
         inkscape:connector-curvature="0"
         d="M 0.140625,0.140625 H 17.199219 V 17.199219 H 0.140625 Z m 0,0"
         id="path18543" />
    </clipPath>
    <clipPath
       id="clip93">
      <rect
         y="0"
         x="0"
         width="22"
         height="24"
         id="rect4896" />
    </clipPath>
    <clipPath
       id="clip94">
      <path
         inkscape:connector-curvature="0"
         d="M 0.0390625,0.0390625 H 21.300781 V 23.421875 H 0.0390625 Z m 0,0"
         id="path4893" />
    </clipPath>
    <mask
       id="mask46">
      <g
         style="filter:url(#alpha-3)"
         id="g4890"
         transform="matrix(0.26458333,0,0,0.26458333,88.611154,119.19859)">
        <rect
           x="0"
           y="0"
           width="3052.8701"
           height="3351.5"
           style="fill:#000000;fill-opacity:0.14999402;stroke:none"
           id="rect4888" />
      </g>
    </mask>
    <filter
       id="filter18556"
       filterUnits="objectBoundingBox"
       x="0"
       y="0"
       width="1"
       height="1">
      <feColorMatrix
         type="matrix"
         in="SourceGraphic"
         values="0 0 0 0 1 0 0 0 0 1 0 0 0 0 1 0 0 0 1 0"
         id="feColorMatrix18554" />
    </filter>
    <clipPath
       id="clipPath18560">
      <rect
         y="0"
         x="0"
         width="22"
         height="24"
         id="rect18558" />
    </clipPath>
    <clipPath
       id="clipPath18564">
      <path
         inkscape:connector-curvature="0"
         d="M 0.0390625,0.0390625 H 21.300781 V 23.421875 H 0.0390625 Z m 0,0"
         id="path18562" />
    </clipPath>
    <clipPath
       id="clip91">
      <rect
         y="0"
         x="0"
         width="29"
         height="32"
         id="rect4880" />
    </clipPath>
    <clipPath
       id="clip92">
      <path
         inkscape:connector-curvature="0"
         d="M 0.507812,0.5 H 28.855469 V 31.679688 H 0.507812 Z m 0,0"
         id="path4877" />
    </clipPath>
    <mask
       id="mask45">
      <g
         style="filter:url(#alpha-3)"
         id="g4874"
         transform="matrix(0.26458333,0,0,0.26458333,88.611154,119.19859)">
        <rect
           x="0"
           y="0"
           width="3052.8701"
           height="3351.5"
           style="fill:#000000;fill-opacity:0.14999402;stroke:none"
           id="rect4872" />
      </g>
    </mask>
    <filter
       id="filter18575"
       filterUnits="objectBoundingBox"
       x="0"
       y="0"
       width="1"
       height="1">
      <feColorMatrix
         type="matrix"
         in="SourceGraphic"
         values="0 0 0 0 1 0 0 0 0 1 0 0 0 0 1 0 0 0 1 0"
         id="feColorMatrix18573" />
    </filter>
    <clipPath
       id="clipPath18579">
      <rect
         y="0"
         x="0"
         width="29"
         height="32"
         id="rect18577" />
    </clipPath>
    <clipPath
       id="clipPath18583">
      <path
         inkscape:connector-curvature="0"
         d="M 0.507812,0.5 H 28.855469 V 31.679688 H 0.507812 Z m 0,0"
         id="path18581" />
    </clipPath>
    <clipPath
       id="clip202">
      <rect
         y="0"
         x="0"
         width="18"
         height="18"
         id="rect5795" />
    </clipPath>
    <clipPath
       id="clip203">
      <path
         inkscape:connector-curvature="0"
         d="M 0.855469,0.140625 H 17.914062 V 17.199219 H 0.855469 Z m 0,0"
         id="path5792" />
    </clipPath>
    <mask
       id="mask104">
      <g
         style="filter:url(#alpha-7)"
         id="g5789"
         transform="matrix(0.26458333,0,0,0.26458333,74.416306,97.613551)">
        <rect
           x="0"
           y="0"
           width="3052.8701"
           height="3351.5"
           style="fill:#000000;fill-opacity:0.33000201;stroke:none"
           id="rect5787" />
      </g>
    </mask>
    <filter
       id="alpha-7"
       filterUnits="objectBoundingBox"
       x="0"
       y="0"
       width="1"
       height="1">
      <feColorMatrix
         type="matrix"
         in="SourceGraphic"
         values="0 0 0 0 1 0 0 0 0 1 0 0 0 0 1 0 0 0 1 0"
         id="feColorMatrix4149-5" />
    </filter>
    <clipPath
       id="clipPath18765">
      <rect
         y="0"
         x="0"
         width="18"
         height="18"
         id="rect18763" />
    </clipPath>
    <clipPath
       id="clipPath18769">
      <path
         inkscape:connector-curvature="0"
         d="M 0.855469,0.140625 H 17.914062 V 17.199219 H 0.855469 Z m 0,0"
         id="path18767" />
    </clipPath>
  </defs>
  <sodipodi:namedview
     id="base"
     pagecolor="#ffffff"
     bordercolor="#666666"
     borderopacity="1.0"
     inkscape:pageopacity="0.0"
     inkscape:pageshadow="2"
     inkscape:zoom="16"
     inkscape:cx="7.659502"
     inkscape:cy="23.901646"
     inkscape:document-units="mm"
     inkscape:current-layer="layer1"
     showgrid="false"
     inkscape:window-width="1920"
     inkscape:window-height="1017"
     inkscape:window-x="-8"
     inkscape:window-y="-8"
     inkscape:window-maximized="1"
     units="px"
     fit-margin-top="0"
     fit-margin-left="0"
     fit-margin-right="0"
     fit-margin-bottom="0" />
  <metadata
     id="metadata15243">
    <rdf:RDF>
      <cc:Work
         rdf:about="">
        <dc:format>image/svg+xml</dc:format>
        <dc:type
           rdf:resource="http://purl.org/dc/dcmitype/StillImage" />
        <dc:title />
      </cc:Work>
    </rdf:RDF>
  </metadata>
  <g
     inkscape:label="Layer 1"
     inkscape:groupmode="layer"
     id="layer1"
     transform="translate(-49.686911,-90.795699)"
     sodipodi:insensitive="true">
    <g
       id="g900">
      <path
         id="path7683"
         d="M 55.736671,90.977083 C 53.51517,90.977083 51.582433,92.211286 50.586081,94.030643 C 50.69266,94.072628 50.79932,94.114564 50.903891,94.158801 L 50.882704,94.22133 C 50.593741,94.754814 50.390792,95.341638 50.291008,95.962825 L 49.953561,95.853271 C 49.898735,96.17548 49.868295,96.506079 49.868295,96.843909 C 49.868295,98.384534 50.462824,99.785386 51.433574,100.8323 L 51.652682,100.55428 L 51.686272,100.58011 C 52.108787,101.03788 52.604735,101.42613 53.160084,101.7201 C 53.095212,101.81858 53.027084,101.91648 52.959063,102.01414 C 53.786006,102.4593 54.731541,102.71228 55.736671,102.71228 C 56.749053,102.71228 57.701688,102.45583 58.532883,102.00432 C 58.466694,101.90908 58.400734,101.81353 58.337546,101.71751 L 58.377853,101.68651 C 58.879158,101.41237 59.330455,101.0599 59.721957,100.64988 L 59.845981,100.55428 L 60.053203,100.81731 C 61.015378,99.772063 61.603497,98.377036 61.603496,96.843909 C 61.603496,96.503383 61.572883,96.170156 61.517197,95.84552 L 61.178716,95.955591 C 61.074316,95.311189 60.857048,94.705253 60.549814,94.156217 C 60.659013,94.110137 60.769668,94.066011 60.88106,94.022375 C 59.883505,92.207362 57.954012,90.977083 55.736671,90.977083 Z"
         style="fill:#000000;fill-opacity:1;fill-rule:nonzero;stroke:none;stroke-width:0.34219441"
         inkscape:connector-curvature="0" />
      <path
         style="fill:#ffffff;fill-opacity:1;fill-rule:nonzero;stroke:none;stroke-width:0.35277775"
         d="M 60.051123,96.844599 C 60.051123,99.227224 58.119132,101.15923 55.736507,101.15923 C 53.353877,101.15923 51.420489,99.227224 51.420489,96.844599 C 51.420489,94.460594 53.353877,92.529961 55.736507,92.529961 C 58.119132,92.529961 60.051123,94.460594 60.051123,96.844599"
         id="path7685"
         inkscape:connector-curvature="0" />
      <path
         style="fill:#ffffff;fill-opacity:1;fill-rule:nonzero;stroke:none;stroke-width:0.40222853"
         d="M 56.652342,90.839799 C 56.351379,90.813619 56.046834,90.795699 55.73512,90.795699 C 55.4252,90.795699 55.120654,90.813619 54.817897,90.839799 V 92.74149 H 56.652342 Z M 56.652342,90.839799"
         id="path7687"
         inkscape:connector-curvature="0" />
    </g>
  </g>
</svg>
